<?xml version="1.0" encoding="utf-8"?>
<!-- Generator: Adobe Illustrator 27.1.0, SVG Export Plug-In . SVG Version: 6.00 Build 0)  -->
<svg version="1.1" id="Layer_1" xmlns="http://www.w3.org/2000/svg" xmlns:xlink="http://www.w3.org/1999/xlink" x="0px" y="0px"
	 viewBox="0 0 1000 784" style="enable-background:new 0 0 1000 784;" xml:space="preserve">
<style type="text/css">

	.st0{fill:#FFFFFF;}
	.st1{fill:#DBECED;}
	.st2{fill:#0D8D8C;}
	.st3{fill:#B589FF;}
	.st4{fill:#77DEF7;}
	.st5{fill:#444244;}
	.st6{fill:#EEE4D9;}
	.st7{opacity:0.8;fill:#FFFFFF;}
	.st8{fill:#9EBFD8;}
	.st9{fill:#4BA1A4;}
	.st10{fill:#0C1A3A;}
	.st11{fill:#739086;}
	.st12{fill:#FEAE65;}
	.st13{fill:#784DD6;}
	.st14{opacity:0.3;fill:#0C1A3A;}
	.st15{fill:#3A3AA5;}
	.st16{fill:#EAEAEA;}
	.st17{fill:#FAA987;}
	.st18{fill:#091230;}
	.st19{opacity:0.4;fill:#FFFFFF;}
	.st20{opacity:0.3;fill:#FFFFFF;}
	.st21{opacity:0.3;fill:#ED1C24;}
	.st22{opacity:0.3;fill:#1C1F23;}
	.st23{opacity:0.3;}
	.st24{fill:#193149;}
	.st25{clip-path:url(#SVGID_00000149357313136561050520000003660067696344250556_);}
</style>
<rect class="st0" width="1000" height="784"/>
<g>
	<g id="XMLID_323_">
		<path id="XMLID_320_" class="st1" d="M517.6,180.4c-94.6-2-100.2,65.8-182.3,83.2c-82.1,17.3-148.4,5.7-151.2,115.6
			C179.9,542,302.2,650.7,516.7,604.5c113.8-24.5,216.4,22.8,269.6-21.6c28.8-24.1,22.1-99.5-11.9-163.8
			c-34-64.3,7.6-78.5-35.6-121.5c-32.7-32.6-84.5-11.3-110.5-38C602.2,232.9,577.2,181.6,517.6,180.4z"/>
		<g id="XMLID_321_">
			<path class="st1" d="M428.6,611.5c-19.7,0-38.6-1.6-56.6-4.7c-42.9-7.5-79.7-23.7-109.4-48.3c-25.7-21.3-45.3-48.3-58.4-80.3
				c-13-31.8-19.1-67.7-18.1-106.7c1.1-43,11.9-70.6,33.9-86.8c20.2-14.8,47.8-19.2,79.8-24.2c12.9-2,26.3-4.1,40.2-7.1
				c36.4-7.7,57.9-25.4,78.7-42.5c26.8-22,52.1-42.8,105.9-41.7c47.7,1,74.2,33.8,95.4,60.2c6,7.4,11.6,14.5,17.3,20.3
				c12.3,12.6,30.4,14.4,49.7,16.4c21.8,2.2,44.4,4.5,62.1,22.1c23.3,23.2,22.5,38.7,21.7,56.8c-0.8,16.8-1.7,35.7,14.5,66.4
				c16.6,31.4,27.6,67.3,30,98.5c2.5,32.3-4,56.6-18.2,68.6c-29.8,24.9-75.3,21.6-127.9,17.7c-43.8-3.2-93.4-6.8-145.3,4.4
				C490.6,607.8,458.6,611.5,428.6,611.5z M520.7,171.6c-50.2,0-74.5,20-100.3,41.2c-21,17.3-42.7,35.1-79.7,42.9
				c-14,3-27.4,5.1-40.3,7.1c-63.5,10-109.4,17.2-111.7,108.7c-2,77.4,24.9,143.1,75.6,185.1c61.1,50.7,150.9,65.1,259.5,41.7
				c52.2-11.2,102-7.6,145.9-4.4c52.1,3.8,97.2,7.1,126.3-17.2c28.1-23.4,22.4-98.6-12.3-164.2C767,381.3,767.9,362,768.7,345
				c0.9-18.2,1.6-32.6-21-55c-17.1-17-39.2-19.2-60.7-21.4c-19.7-2-38.3-3.9-51.1-17.1c-5.8-5.9-11.5-13-17.5-20.5
				c-22-27.4-47-58.4-93.7-59.4C523.4,171.6,522,171.6,520.7,171.6z"/>
		</g>
	</g>
	<g id="XMLID_365_">
		<g id="XMLID_1040_">
			<g id="XMLID_905_">
				<g id="XMLID_364_">
					<path class="st2" d="M694.6,232.9c-185.2,0-182.9,3.1-182.9-7.5c0-133.2-2.8-134.2,7.5-134.2c185.2,0,182.9-3.1,182.9,7.5
						C702.1,231.9,704.9,232.9,694.6,232.9z"/>
					<path class="st2" d="M557,234.2c-33.3,0-42-0.6-44.9-3.5c-1.3-1.3-1.3-3-1.3-4.9l0-0.4c0-28.6-0.1-50.9-0.2-68.8
						c-0.3-49.5-0.4-61.2,3.2-64.8c1.4-1.4,3.4-1.4,5.4-1.4c41.8,0,73.4-0.2,98.9-0.3c66.1-0.3,79.9-0.4,83.6,3.4
						c1.3,1.3,1.3,3,1.3,4.9l0,0.4c0,28.6,0.1,50.9,0.2,68.8c0.3,49.5,0.4,61.2-3.2,64.8c-1.4,1.4-3.4,1.4-5.4,1.4
						c-41.8,0-73.4,0.2-98.9,0.3C580.1,234.1,567.4,234.2,557,234.2z M656.6,91.6c-10.4,0-23.1,0.1-38.6,0.1
						c-25.4,0.1-57.1,0.3-98.9,0.3c-2,0-3.3,0-4.2,0.9c-3.1,3.1-3,17.1-2.7,63.6c0.1,17.9,0.2,40.2,0.2,68.8l0,0.4
						c0,1.9,0,2.9,0.8,3.7c3.3,3.2,20,3.2,82.4,2.9c25.4-0.1,57.1-0.3,98.9-0.3c2,0,3.3,0,4.2-0.9c3.1-3.1,3-17.1,2.7-63.6
						c-0.1-17.9-0.2-40.2-0.2-68.8l0-0.4c0-1.9,0-2.9-0.8-3.7C698,92.2,687.9,91.6,656.6,91.6z"/>
				</g>
				<g id="XMLID_894_">
					<path class="st3" d="M703,99.1H510.8v-0.9c0-4.4,3.5-7.9,7.9-7.9c40.4,0,71.5-0.1,96.5-0.2c70.4-0.3,83.1-0.3,86.6,3.2
						c1.2,1.2,1.2,2.7,1.2,4.3L703,99.1z"/>
				</g>
				<g id="XMLID_900_">
					<path id="XMLID_904_" class="st2" d="M693.9,96.6c2.1,0,3.1,0.2,3.1-0.7c0-2.1,0.2-3.1-0.7-3.1c-2.1,0-3.1-0.2-3.1,0.7
						C693.2,95.6,693,96.6,693.9,96.6z"/>
					<g id="XMLID_901_">
						<g id="XMLID_903_">
							<path class="st0" d="M694,96.2c-0.1,0-0.2,0-0.3-0.1c-0.2-0.2-0.2-0.4,0-0.6l2.2-2.2c0.2-0.2,0.4-0.2,0.6,0
								c0.2,0.2,0.2,0.4,0,0.6l-2.2,2.2C694.2,96.2,694.1,96.2,694,96.2z"/>
						</g>
						<g id="XMLID_902_">
							<path class="st0" d="M696.2,96.2c-0.1,0-0.2,0-0.3-0.1l-2.2-2.2c-0.2-0.2-0.2-0.4,0-0.6c0.2-0.2,0.4-0.2,0.6,0l2.2,2.2
								c0.2,0.2,0.2,0.4,0,0.6C696.4,96.2,696.3,96.2,696.2,96.2z"/>
						</g>
					</g>
				</g>
			</g>
			<g id="XMLID_1039_">
				<g id="XMLID_978_">
					<g id="XMLID_951_">
						<g id="XMLID_936_">
							<path class="st0" d="M540.4,110h-18.8c-0.2,0-0.4-0.2-0.4-0.4c0-0.2,0.2-0.4,0.4-0.4h18.8c0.2,0,0.4,0.2,0.4,0.4
								C540.8,109.8,540.6,110,540.4,110z"/>
						</g>
						<g id="XMLID_938_">
							<path class="st0" d="M540.4,214.9h-18.8c-0.2,0-0.4-0.2-0.4-0.4c0-0.2,0.2-0.4,0.4-0.4h18.8c0.2,0,0.4,0.2,0.4,0.4
								C540.8,214.7,540.6,214.9,540.4,214.9z"/>
						</g>
						<g id="XMLID_937_">
							<path class="st0" d="M521.6,214.9c-0.2,0-0.4-0.2-0.4-0.4V109.6c0-0.2,0.2-0.4,0.4-0.4c0.2,0,0.4,0.2,0.4,0.4v104.9
								C522,214.7,521.8,214.9,521.6,214.9z"/>
						</g>
					</g>
					<g id="XMLID_950_">
						<g id="XMLID_949_">
							<path class="st0" d="M548,119.6h-15.3c-0.2,0-0.4-0.2-0.4-0.4c0-0.2,0.2-0.4,0.4-0.4H548c0.2,0,0.4,0.2,0.4,0.4
								C548.5,119.4,548.3,119.6,548,119.6z"/>
						</g>
						<g id="XMLID_948_">
							<path class="st0" d="M548,205.3h-15.3c-0.2,0-0.4-0.2-0.4-0.4s0.2-0.4,0.4-0.4H548c0.2,0,0.4,0.2,0.4,0.4
								S548.3,205.3,548,205.3z"/>
						</g>
						<g id="XMLID_947_">
							<path class="st0" d="M532.7,205.3c-0.2,0-0.4-0.2-0.4-0.4v-85.7c0-0.2,0.2-0.4,0.4-0.4s0.4,0.2,0.4,0.4v85.7
								C533.1,205.1,532.9,205.3,532.7,205.3z"/>
						</g>
					</g>
					<g id="XMLID_954_">
						<g id="XMLID_957_">
							<path class="st0" d="M557.5,132.4h-10.8c-0.2,0-0.4-0.2-0.4-0.4c0-0.2,0.2-0.4,0.4-0.4h10.8c0.2,0,0.4,0.2,0.4,0.4
								C557.9,132.2,557.7,132.4,557.5,132.4z"/>
						</g>
						<g id="XMLID_956_">
							<path class="st0" d="M557.5,192.6h-10.8c-0.2,0-0.4-0.2-0.4-0.4c0-0.2,0.2-0.4,0.4-0.4h10.8c0.2,0,0.4,0.2,0.4,0.4
								C557.9,192.4,557.7,192.6,557.5,192.6z"/>
						</g>
						<g id="XMLID_955_">
							<path class="st0" d="M546.7,192.6c-0.2,0-0.4-0.2-0.4-0.4v-60.2c0-0.2,0.2-0.4,0.4-0.4c0.2,0,0.4,0.2,0.4,0.4v60.2
								C547.1,192.4,546.9,192.6,546.7,192.6z"/>
						</g>
					</g>
					<g id="XMLID_965_">
						<path class="st0" d="M559,192.6c-0.2,0-0.4-0.2-0.4-0.4v-44.3c0-0.2,0.2-0.4,0.4-0.4c0.2,0,0.4,0.2,0.4,0.4v44.3
							C559.4,192.4,559.2,192.6,559,192.6z"/>
					</g>
				</g>
				<g id="XMLID_977_">
					<path id="XMLID_932_" class="st0" d="M561.9,113c-37.2,0-36.2,0.4-36.2-1c0-4.7-0.3-5.9,1-5.9c37.2,0,36.2-0.4,36.2,1
						C562.9,111.8,563.2,113,561.9,113z"/>
					<path id="XMLID_952_" class="st0" d="M576.5,122.9c-37.2,0-36.2,0.4-36.2-1c0-4.7-0.3-5.9,1-5.9c37.2,0,36.2-0.4,36.2,1
						C577.6,121.7,577.9,122.9,576.5,122.9z"/>
					<path id="XMLID_958_" class="st0" d="M561.9,135.4c-10,0-10.8,0.3-10.8-1c0-4.7-0.3-5.9,1-5.9c10,0,10.8-0.3,10.8,1
						C562.9,134.2,563.2,135.4,561.9,135.4z"/>
					<path id="XMLID_969_" class="st0" d="M597.3,122.9c-10,0-10.8,0.3-10.8-1c0-4.7-0.3-5.9,1-5.9c10,0,10.8-0.3,10.8,1
						C598.4,121.7,598.7,122.9,597.3,122.9z"/>
					<path id="XMLID_970_" class="st0" d="M626.1,165.2c-10,0-10.8,0.3-10.8-1c0-4.7-0.3-5.9,1-5.9c10,0,10.8-0.3,10.8,1
						C627.1,164,627.4,165.2,626.1,165.2z"/>
					<path id="XMLID_971_" class="st0" d="M643.3,165.2c-10,0-10.8,0.3-10.8-1c0-4.7-0.3-5.9,1-5.9c10,0,10.8-0.3,10.8,1v4.8
						C644.4,164.7,643.9,165.2,643.3,165.2z"/>
					<path id="XMLID_972_" class="st0" d="M659.8,165.2c-10,0-10.8,0.3-10.8-1c0-4.7-0.3-5.9,1-5.9c10,0,10.8-0.3,10.8,1
						C660.9,164,661.2,165.2,659.8,165.2z"/>
					<path id="XMLID_974_" class="st0" d="M591.4,208.3c-10,0-10.8,0.3-10.8-1c0-4.7-0.3-5.9,1-5.9c10,0,10.8-0.3,10.8,1
						C592.4,207.1,592.7,208.3,591.4,208.3z"/>
					<path id="XMLID_959_" class="st0" d="M563.9,195.6c-10,0-10.8,0.3-10.8-1c0-4.7-0.3-5.9,1-5.9c10,0,10.8-0.3,10.8,1
						C564.9,194.4,565.2,195.6,563.9,195.6z"/>
					<path id="XMLID_960_" class="st0" d="M563.9,180.8c-10,0-10.8,0.3-10.8-1c0-4.7-0.3-5.9,1-5.9c10,0,10.8-0.3,10.8,1
						C564.9,179.6,565.2,180.8,563.9,180.8z"/>
					<path id="XMLID_961_" class="st0" d="M563.9,165.2c-10,0-10.8,0.3-10.8-1c0-4.7-0.3-5.9,1-5.9c10,0,10.8-0.3,10.8,1
						C564.9,164,565.2,165.2,563.9,165.2z"/>
					<path id="XMLID_963_" class="st0" d="M563.9,151.2c-10,0-10.8,0.3-10.8-1c0-4.7-0.3-5.9,1-5.9c10,0,10.8-0.3,10.8,1
						C564.9,150,565.2,151.2,563.9,151.2z"/>
					<path id="XMLID_953_" class="st0" d="M568.7,208.2c-28.9,0-28.3,0.4-28.3-1c0-4.7-0.3-5.9,1-5.9c28.9,0,28.3-0.4,28.3,1
						C569.7,207,570,208.2,568.7,208.2z"/>
					<path id="XMLID_939_" class="st0" d="M545.6,217.9c-17.2,0-17.6,0.4-17.6-1c0-4.7-0.3-5.9,1-5.9c17.2,0,17.6-0.4,17.6,1
						C546.7,216.7,547,217.9,545.6,217.9z"/>
					<path id="XMLID_934_" class="st0" d="M634,113c-68.2,0-64.9,0.5-64.9-1c0-4.7-0.3-5.9,1-5.9c68.2,0,64.9-0.5,64.9,1
						C635.1,111.8,635.4,113,634,113z"/>
					<path id="XMLID_966_" class="st0" d="M634.6,180.8c-68.2,0-64.9,0.5-64.9-1c0-4.7-0.3-5.9,1-5.9c68.2,0,64.9-0.5,64.9,1
						C635.6,179.6,635.9,180.8,634.6,180.8z"/>
					<path id="XMLID_967_" class="st0" d="M606.9,165.2c-38.8,0-37.2,0.4-37.2-1c0-4.7-0.3-5.9,1-5.9c38.8,0,37.2-0.4,37.2,1
						C607.9,164,608.2,165.2,606.9,165.2z"/>
					<path id="XMLID_968_" class="st0" d="M634.6,151.2c-68.2,0-64.9,0.5-64.9-1c0-4.7-0.3-5.9,1-5.9c68.2,0,64.9-0.5,64.9,1
						C635.6,150,635.9,151.2,634.6,151.2z"/>
					<path id="XMLID_935_" class="st0" d="M691.2,113c-45.5,0-44,0.5-44-1c0-4.7-0.3-5.9,1-5.9c45.5,0,44-0.5,44,1
						C692.2,111.8,692.5,113,691.2,113z"/>
				</g>
			</g>
		</g>
		<g id="XMLID_1038_">
			<g id="XMLID_907_">
				<g id="XMLID_918_">
					<path class="st4" d="M808.3,293.5c-161.6,0-158.5,2.5-158.5-5.9c0-94.4-2.2-96,5.9-96c161.6,0,158.5-2.5,158.5,5.9
						C814.2,291.9,816.4,293.5,808.3,293.5z"/>
					<path class="st4" d="M687.6,294.7c-28.7,0-35.3-0.5-37.6-2.8c-1.1-1.1-1-2.4-1-3.8l0-0.5c0-20.2-0.1-36.1-0.2-48.8
						c-0.2-35.6-0.3-44,2.5-46.9c1.1-1.1,2.6-1.2,4.4-1.2c37,0,64.7-0.1,87.1-0.2c57.8-0.3,68.2-0.3,71.2,2.7c1.1,1.1,1,2.4,1,3.8
						l0,0.5c0,20.2,0.1,36.1,0.2,48.8c0.2,35.6,0.3,44-2.5,46.8c-1.1,1.1-2.6,1.2-4.4,1.2c-37,0-64.8,0.1-87.1,0.2
						C707.5,294.7,696.5,294.7,687.6,294.7z M776,192.1c-8.9,0-19.8,0-33.2,0.1c-22.3,0.1-50.1,0.2-87.1,0.2c-1.7,0-2.6,0.1-3.2,0.7
						c-2.3,2.3-2.3,13.2-2,45.6c0.1,12.7,0.2,28.6,0.2,48.8l0,0.5c0,1.3,0,2.1,0.5,2.6c2.5,2.5,16.8,2.5,70,2.2
						c22.3-0.1,50.1-0.2,87.1-0.2c1.7,0,2.6-0.1,3.2-0.7c2.3-2.3,2.3-13.2,2-45.6c-0.1-12.7-0.2-28.6-0.2-48.8l0-0.5
						c0-1.3,0-2.1-0.5-2.6C810.9,192.6,802.4,192.1,776,192.1z"/>
				</g>
				<g id="XMLID_915_">
					<path class="st5" d="M814.2,196.7H649.8c0-2.8,2.3-5.1,5.1-5.1C819.3,191.6,814.2,189.4,814.2,196.7z"/>
					<path class="st3" d="M815,197.5H648.9v-0.9c0-3.3,2.7-5.9,5.9-5.9c38.2,0,67.8-0.1,89.4-0.2c57.1-0.2,67.4-0.3,70,2.4
						c0.9,0.9,0.9,2,0.8,3.1c0,0.2,0,0.4,0,0.6V197.5z"/>
				</g>
				<g id="XMLID_909_">
					<path id="XMLID_914_" class="st4" d="M807,195.5c1.4,0,2.7,0.3,2.7-0.6c0-1,0.2-2.2-0.6-2.2c-1.4,0-2.7-0.3-2.7,0.6
						C806.5,194.4,806.2,195.5,807,195.5z"/>
					<g id="XMLID_910_">
						<g id="XMLID_913_">
							<path class="st0" d="M807.2,195.4c-0.1,0-0.2-0.1-0.3-0.2c-0.2-0.2-0.1-0.5,0.1-0.6l1.9-1.6c0.2-0.2,0.5-0.1,0.6,0.1
								c0.2,0.2,0.1,0.5-0.1,0.6l-1.9,1.6C807.4,195.3,807.3,195.4,807.2,195.4z"/>
						</g>
						<g id="XMLID_911_">
							<path class="st0" d="M809.1,195.4c-0.1,0-0.2,0-0.3-0.1l-1.9-1.6c-0.2-0.2-0.2-0.4-0.1-0.6c0.2-0.2,0.4-0.2,0.6-0.1l1.9,1.6
								c0.2,0.2,0.2,0.4,0.1,0.6C809.3,195.3,809.2,195.4,809.1,195.4z"/>
						</g>
					</g>
				</g>
			</g>
			<g id="XMLID_1017_">
				<g id="XMLID_984_">
					<path id="XMLID_983_" class="st0" d="M666.5,209.2c-2.8,0-4.1,0.3-4.1-1v-3.2c0-0.5,0.4-1,1-1h3.2c0.5,0,1,0.4,1,1v3.2
						C667.5,208.8,667.1,209.2,666.5,209.2z"/>
					<path id="XMLID_982_" class="st0" d="M666.5,220.4c-2.8,0-4.1,0.3-4.1-1c0-2.8-0.3-4.1,1-4.1h3.2c0.5,0,1,0.4,1,1v3.2
						C667.5,220,667.1,220.4,666.5,220.4z"/>
					<path id="XMLID_981_" class="st0" d="M666.5,232.3c-2.8,0-4.1,0.3-4.1-1c0-2.8-0.3-4.1,1-4.1h3.2c0.5,0,1,0.4,1,1v3.2
						C667.5,231.9,667.1,232.3,666.5,232.3z"/>
					<path id="XMLID_980_" class="st0" d="M666.5,242c-2.8,0-4.1,0.3-4.1-1c0-2.8-0.3-4.1,1-4.1h3.2c0.5,0,1,0.4,1,1v3.2
						C667.5,241.6,667.1,242,666.5,242z"/>
					<path id="XMLID_979_" class="st0" d="M666.5,253.4c-2.8,0-4.1,0.3-4.1-1c0-2.8-0.3-4.1,1-4.1h3.2c0.5,0,1,0.4,1,1v3.2
						C667.5,253,667.1,253.4,666.5,253.4z"/>
				</g>
				<g id="XMLID_986_">
					<g id="XMLID_989_">
						<path class="st0" d="M683.7,207.1h-13.3c-0.2,0-0.4-0.2-0.4-0.4c0-0.2,0.2-0.4,0.4-0.4h13.3c0.2,0,0.4,0.2,0.4,0.4
							C684.1,206.9,684,207.1,683.7,207.1z"/>
					</g>
					<g id="XMLID_988_">
						<path class="st6" d="M683.7,281.3h-13.3c-0.2,0-0.4-0.2-0.4-0.4c0-0.2,0.2-0.4,0.4-0.4h13.3c0.2,0,0.4,0.2,0.4,0.4
							C684.1,281.2,684,281.3,683.7,281.3z"/>
					</g>
					<g id="XMLID_987_">
						<path class="st0" d="M670.5,281.3c-0.2,0-0.4-0.2-0.4-0.4v-74.3c0-0.2,0.2-0.4,0.4-0.4c0.2,0,0.4,0.2,0.4,0.4V281
							C670.8,281.2,670.7,281.3,670.5,281.3z"/>
					</g>
				</g>
				<path id="XMLID_990_" class="st0" d="M702.4,209.2h-21.8c-0.2,0-0.3-0.2-0.3-0.3v-4.4c0-0.2,0.2-0.3,0.3-0.3h21.8
					c0.2,0,0.3,0.2,0.3,0.3v4.4C702.7,209.1,702.6,209.2,702.4,209.2z"/>
				<path id="XMLID_999_" class="st7" d="M776.1,209.2c-69.9,0-67.5,0.7-67.5-1.5v-2c0-0.8,0.7-1.5,1.5-1.5h66
					c0.8,0,1.5,0.7,1.5,1.5v2C777.6,208.5,777,209.2,776.1,209.2z"/>
				<path id="XMLID_1009_" class="st7" d="M776.1,231.6h-66c-0.8,0-1.5-0.7-1.5-1.5v-2c0-0.8,0.7-1.5,1.5-1.5
					c69.9,0,67.5-0.7,67.5,1.5C777.6,229.5,778,231.6,776.1,231.6z"/>
				<path id="XMLID_1011_" class="st7" d="M776.1,253.9h-66c-0.8,0-1.5-0.7-1.5-1.5v-2c0-0.8,0.7-1.5,1.5-1.5
					c69.9,0,67.5-0.7,67.5,1.5C777.6,251.9,778,253.9,776.1,253.9z"/>
				<path id="XMLID_1012_" class="st7" d="M776.1,276.3c-69.9,0-67.5,0.7-67.5-1.5c0-1.5-0.3-3.6,1.5-3.6c69.9,0,67.5-0.7,67.5,1.5
					C777.6,274.2,778,276.3,776.1,276.3z"/>
				<path id="XMLID_992_" class="st0" d="M702.4,220.4h-21.8c-0.2,0-0.3-0.2-0.3-0.3v-4.4c0-0.2,0.2-0.3,0.3-0.3h21.8
					c0.2,0,0.3,0.2,0.3,0.3v4.4C702.7,220.2,702.6,220.4,702.4,220.4z"/>
				<path id="XMLID_993_" class="st0" d="M701.2,231.6h-19.4c-0.8,0-1.5-0.7-1.5-1.5v-2c0-0.8,0.7-1.5,1.5-1.5
					c20.2,0,20.9-0.6,20.9,1.5v2C702.7,230.9,702,231.6,701.2,231.6z"/>
				<path id="XMLID_995_" class="st0" d="M702.4,242.7h-21.8c-0.2,0-0.3-0.2-0.3-0.3V238c0-0.2,0.2-0.3,0.3-0.3h21.8
					c0.2,0,0.3,0.2,0.3,0.3v4.4C702.7,242.6,702.6,242.7,702.4,242.7z"/>
				<path id="XMLID_996_" class="st0" d="M702.4,253.9h-21.8c-0.2,0-0.3-0.2-0.3-0.3v-4.4c0-0.2,0.2-0.3,0.3-0.3h21.8
					c0.2,0,0.3,0.1,0.3,0.3v4.4C702.7,253.8,702.6,253.9,702.4,253.9z"/>
				<path id="XMLID_997_" class="st0" d="M702.4,265.1h-21.8c-0.2,0-0.3-0.1-0.3-0.3v-4.4c0-0.2,0.2-0.3,0.3-0.3h21.8
					c0.2,0,0.3,0.1,0.3,0.3v4.4C702.7,264.9,702.6,265.1,702.4,265.1z"/>
				<path id="XMLID_998_" class="st8" d="M701.2,276.3c-20.2,0-20.9,0.6-20.9-1.5c0-1.5-0.3-3.6,1.5-3.6c20.2,0,20.9-0.6,20.9,1.5
					C702.7,274.2,703,276.3,701.2,276.3z"/>
				<path id="XMLID_1014_" class="st0" d="M800,220.4c-20.2,0-20.9,0.6-20.9-1.5c0-1.5-0.3-3.6,1.5-3.6c20.2,0,20.9-0.6,20.9,1.5
					C801.6,218.4,801.9,220.4,800,220.4z"/>
				<path id="XMLID_1015_" class="st0" d="M800,242.7c-20.2,0-20.9,0.6-20.9-1.5c0-1.5-0.3-3.6,1.5-3.6c20.2,0,20.9-0.6,20.9,1.5
					C801.6,240.7,801.9,242.7,800,242.7z"/>
				<path id="XMLID_1016_" class="st0" d="M800,265.1c-20.2,0-20.9,0.6-20.9-1.5c0-1.5-0.3-3.6,1.5-3.6c20.2,0,20.9-0.6,20.9,1.5
					C801.6,263.1,801.9,265.1,800,265.1z"/>
			</g>
		</g>
		<g id="XMLID_1037_">
			<g id="XMLID_919_">
				<g id="XMLID_926_">
					<path class="st9" d="M708.7,380.8c-187.8,0-184,2.8-184-6.9c0-109.5-2.6-111.5,6.9-111.5h177.1c3.8,0,6.9,3.1,6.9,6.9
						C715.6,378.8,718.1,380.8,708.7,380.8z"/>
					<path class="st9" d="M568.7,382.1c-33.4,0-41.1-0.6-43.7-3.3c-1.2-1.2-1.2-2.7-1.2-4.3l0-0.6c0-23.3-0.1-41.7-0.2-56.4
						c-0.3-41.4-0.3-51.3,2.9-54.6c1.3-1.3,3-1.4,5-1.4h177.1c4.3,0,7.7,3.5,7.7,7.7c0,23.3,0.1,41.7,0.2,56.4
						c0.3,41.4,0.3,51.3-2.9,54.6c-1.3,1.3-3,1.4-5,1.4c-42.8,0-74.9,0.1-100.8,0.3C592,382,579.1,382.1,568.7,382.1z M531.6,263.3
						c-2,0-3,0.1-3.8,0.9c-2.8,2.8-2.7,14.5-2.4,53.3c0.1,14.7,0.2,33.1,0.2,56.4l0,0.6c0,1.6,0,2.4,0.7,3.1c3,3,19.6,2.9,81.7,2.6
						c25.9-0.1,58-0.3,100.8-0.3c2,0,3-0.1,3.8-0.9c2.8-2.8,2.7-14.5,2.4-53.3c-0.1-14.7-0.2-33.1-0.2-56.4c0-3.3-2.7-6-6-6H531.6z"
						/>
				</g>
				<g id="XMLID_925_">
					<path class="st5" d="M715.6,268.3H524.7c0-3.2,2.6-5.9,5.9-5.9C721.6,262.5,715.6,260,715.6,268.3z"/>
					<path class="st10" d="M716.4,269.2H523.8v-0.9c0-3.7,3-6.7,6.7-6.7c44.4,0,78.7-0.1,103.7-0.2c66.3-0.3,78.2-0.3,81.2,2.8
						c1,1,1,2.2,0.9,3.5c0,0.2,0,0.5,0,0.7V269.2z"/>
				</g>
				<g id="XMLID_920_">
					<path id="XMLID_924_" class="st9" d="M706.8,267h3.5c0.1,0,0.1-0.1,0.1-0.1V264c0-0.1-0.1-0.1-0.1-0.1h-3.5
						c-0.1,0-0.1,0.1-0.1,0.1v2.9C706.6,266.9,706.7,267,706.8,267z"/>
					<g id="XMLID_362_">
						<g id="XMLID_363_">
							<path class="st0" d="M707.4,266.8c-0.1,0-0.2-0.1-0.3-0.2c-0.2-0.2-0.1-0.5,0.1-0.6l2.2-1.8c0.2-0.2,0.5-0.1,0.6,0.1
								c0.2,0.2,0.1,0.5-0.1,0.6l-2.2,1.8C707.6,266.7,707.5,266.8,707.4,266.8z"/>
						</g>
						<g id="XMLID_922_">
							<path class="st0" d="M709.6,266.8c-0.1,0-0.2,0-0.3-0.1l-2.2-1.8c-0.2-0.2-0.2-0.4-0.1-0.6c0.2-0.2,0.4-0.2,0.6-0.1l2.2,1.8
								c0.2,0.2,0.2,0.4,0.1,0.6C709.9,266.7,709.8,266.8,709.6,266.8z"/>
						</g>
					</g>
				</g>
			</g>
			<g id="XMLID_1036_">
				<path id="XMLID_1022_" class="st0" d="M599.3,294.7c-50.3,0-48.9,0.5-48.9-1.2c0-4.1-0.4-5.7,1.2-5.7c50.3,0,48.9-0.5,48.9,1.2
					C600.5,293.1,600.9,294.7,599.3,294.7z"/>
				<path id="XMLID_1023_" class="st0" d="M637,355.5c-90.3,0-86.5,0.7-86.5-1.6c0-2.9-0.5-5.3,1.6-5.3H637c0.9,0,1.6,0.7,1.6,1.6
					v3.7C638.6,354.8,637.8,355.5,637,355.5z"/>
				<g id="XMLID_1018_">
					<path id="XMLID_1025_" class="st0" d="M544.1,294.8c-3.9,0-5.7,0.4-5.7-1.3c0-3.9-0.4-5.7,1.3-5.7c3.9,0,5.7-0.4,5.7,1.3
						C545.4,292.9,545.8,294.8,544.1,294.8z"/>
					<path id="XMLID_1024_" class="st0" d="M544.1,310.1c-3.9,0-5.7,0.4-5.7-1.3c0-3.9-0.4-5.7,1.3-5.7c3.9,0,5.7-0.4,5.7,1.3
						C545.4,308.3,545.8,310.1,544.1,310.1z"/>
					<path id="XMLID_1021_" class="st0" d="M544.1,326.5c-3.9,0-5.7,0.4-5.7-1.3c0-3.9-0.4-5.7,1.3-5.7c3.9,0,5.7-0.4,5.7,1.3
						C545.4,324.6,545.8,326.5,544.1,326.5z"/>
					<path id="XMLID_1020_" class="st0" d="M544.1,339.8c-3.9,0-5.7,0.4-5.7-1.3c0-3.9-0.4-5.7,1.3-5.7c3.9,0,5.7-0.4,5.7,1.3
						C545.4,338,545.8,339.8,544.1,339.8z"/>
					<path id="XMLID_1019_" class="st0" d="M544.1,355.5c-3.9,0-5.7,0.4-5.7-1.3c0-3.9-0.4-5.7,1.3-5.7c3.9,0,5.7-0.4,5.7,1.3
						C545.4,353.7,545.8,355.5,544.1,355.5z"/>
				</g>
				<path id="XMLID_1026_" class="st7" d="M699.7,294.8c-95.8,0-92.7,1-92.7-2.1c0-2.2-0.4-5,2.1-5h90.6c1.2,0,2.1,0.9,2.1,2.1v2.9
					C701.8,293.8,700.9,294.8,699.7,294.8z"/>
				<path id="XMLID_1028_" class="st0" d="M599.3,310c-50.3,0-48.9,0.5-48.9-1.2c0-4.1-0.4-5.7,1.2-5.7c50.3,0,48.9-0.5,48.9,1.2
					v4.5C600.5,309.5,600,310,599.3,310z"/>
				<path id="XMLID_1027_" class="st7" d="M690.3,310.1c-86.2,0-83.2,0.9-83.2-2c0-2.4-0.4-5.1,2-5.1h81.3c1.1,0,2,0.9,2,2v3.1
					C692.3,309.2,691.4,310.1,690.3,310.1z"/>
				<path id="XMLID_1030_" class="st0" d="M599.3,326.4c-50.3,0-48.9,0.5-48.9-1.2c0-4.1-0.4-5.7,1.2-5.7c50.3,0,48.9-0.5,48.9,1.2
					C600.5,324.8,600.9,326.4,599.3,326.4z"/>
				<path id="XMLID_1029_" class="st7" d="M674.5,326.5c-69.5,0-67.5,0.8-67.5-1.8c0-2.7-0.5-5.3,1.8-5.3h65.7c1,0,1.8,0.8,1.8,1.8
					v3.5C676.3,325.7,675.5,326.5,674.5,326.5z"/>
				<path id="XMLID_1033_" class="st7" d="M674.5,343.4c-69.5,0-67.5,0.8-67.5-1.8c0-2.7-0.5-5.3,1.8-5.3h65.7c1,0,1.8,0.8,1.8,1.8
					v3.5C676.3,342.6,675.5,343.4,674.5,343.4z"/>
				<path id="XMLID_1032_" class="st0" d="M599.3,342.7c-50.3,0-48.9,0.5-48.9-1.2c0-4.1-0.4-5.7,1.2-5.7c50.3,0,48.9-0.5,48.9,1.2
					C600.5,341.2,600.9,342.7,599.3,342.7z"/>
				<path id="XMLID_1031_" class="st7" d="M700.1,355.6c-60.2,0-58.5,0.7-58.5-1.7c0-3-0.4-5.4,1.7-5.4h56.8c0.9,0,1.7,0.7,1.7,1.7
					v3.7C701.8,354.8,701.1,355.6,700.1,355.6z"/>
			</g>
		</g>
	</g>
	<path id="XMLID_325_" class="st1" d="M367.9,710.6c-217.1,0-216.8-64.9,0-64.9C585.1,645.7,584.7,710.6,367.9,710.6z"/>
	<g id="XMLID_44_">
		<path id="XMLID_315_" class="st10" d="M280.3,686.3c-4.5-1.7-3.7,0.6,22.1-88.2l16.3,5.7L285,684.3
			C283.4,688.1,279,685.8,280.3,686.3z"/>
		<path id="XMLID_317_" class="st10" d="M465.6,684.7l-21.9-84.5l-16.4,5.3l31.4,81.4C460.3,691.3,466.8,689.1,465.6,684.7z"/>
		<g id="XMLID_41_">
			<path class="st9" d="M271.3,608.3c-71.6-31.6-68.6-114.2-26.8-123.2c22.6-4.9,41.6,15.6,60.5,28.9c34.3,24.1,82.9,25.9,118.9,4.3
				c18.4-11,68.4-51.9,100.2-22.7c35.1,32.2-13.4,124.8-91.7,119.9C379.2,612.2,321.9,630.7,271.3,608.3z"/>
			<path class="st9" d="M333.4,620c-21.3,0-42.3-2.5-62.2-11.3c-43-19-59.2-56.5-56.3-85.3c2.1-20.4,13.4-35.2,29.5-38.7
				c18.2-3.9,34,8.4,49.3,20.3c3.8,3,7.7,6,11.6,8.7c34.1,23.9,82.8,25.7,118.5,4.3c2.5-1.5,5.5-3.5,8.9-5.8
				c22.4-14.8,64-42.4,91.7-16.9c13.4,12.3,15.5,34.7,5.3,58.5c-7.5,17.5-20.4,33.3-36.3,44.5c-18.2,12.8-39.3,18.9-61,17.5
				c-18.5-1.2-37.8,0.3-56.5,1.8C361.8,618.8,347.5,620,333.4,620z"/>
		</g>
		<path id="XMLID_316_" class="st2" d="M297.8,584.8c-53.4-23.5-51.2-85.1-20-91.8c16.9-3.6,31,11.7,45.1,21.6
			c25.6,18,61.8,19.3,88.7,3.2c13.8-8.2,51-38.7,74.7-16.9c26.2,24-10,93.1-68.4,89.4C378.2,587.7,335.5,601.5,297.8,584.8z"/>
		<g id="XMLID_42_">
			<path class="st11" d="M258.7,444.1c-10-23.5-20.1-49.1-13.8-73.8c15.2-59.6,129.6-93.6,219.8-47.2c118,60.7-1.6,161.3-23.6,208.6
				c-7.1,15.4-10,21.3-32.3,22.2C281.6,558.9,295,529.8,258.7,444.1z"/>
			<path class="st9" d="M383.7,554.8c-37.7,0-60.2-4.4-75.2-14.1c-18-11.7-25.1-30.9-35.9-60c-4-10.8-8.5-23-14.3-36.5
				c-8.6-20.3-20.4-48.1-13.8-74c5.6-21.8,24.4-40.9,53-53.8c50.3-22.6,115.9-20.1,167.3,6.3c28.1,14.5,44.9,32.5,49.8,53.6
				c9.3,39.4-22.6,82.8-48.3,117.7c-10.8,14.7-20.1,27.4-24.9,37.7c-7.1,15.2-10,21.5-32.7,22.4
				C399.7,554.7,391.4,554.8,383.7,554.8z"/>
		</g>
		<path id="XMLID_313_" class="st2" d="M282.7,440.9c-8-18.8-16.1-39.3-11-59.1c12.2-47.7,103.8-75,176-37.8
			c94.5,48.6-1.3,129.2-18.9,167c-5.7,12.3-8,17.1-25.9,17.8C301.1,532.8,311.8,509.5,282.7,440.9z"/>
	</g>
	<g id="XMLID_296_">
		<path id="XMLID_298_" class="st1" d="M625.9,681.2c-118.9,0-118.7-35.5,0-35.5C744.8,645.6,744.6,681.2,625.9,681.2z"/>
		<g id="XMLID_273_">
			<path id="XMLID_275_" class="st12" d="M586.7,543.7c1.2-6.9,71.9-7.4,78.1-0.6C672.2,551.3,581.5,551.4,586.7,543.7z"/>
			<path id="XMLID_274_" class="st3" d="M625.9,600.9c-29.7,0-49.8-30-39.2-57.1c1.1-6.8,71.9-7.4,78.1-0.6c0.1,0.3,0.2,0.5,0.3,0.8
				C675.6,571.4,655.2,600.9,625.9,600.9z"/>
		</g>
		<path id="XMLID_297_" class="st4" d="M627.1,548.9c-35.4,0-35.8-8.4,0-8.4C662.5,540.4,662.9,548.9,627.1,548.9z"/>
		<g id="XMLID_261_">
			<path id="XMLID_272_" class="st9" d="M629.8,524.1c-13.2-14.2-20.4-26.5-21.6-57.2c-1.1-28.5,25.3-46.7,34.3-9
				C651.7,495.7,630,525.9,629.8,524.1z"/>
			<path id="XMLID_271_" class="st9" d="M652.8,492.9c1-11,8.5-36.1,20.4-50.5c11.9-14.3,48-20.5,26.5,12.1
				C678.1,487.2,652.8,492.9,652.8,492.9z"/>
			<path id="XMLID_270_" class="st9" d="M645.8,522.5c23.3-48.6,84.7-39.3,70.3-17.3C706,520.9,645.8,522.5,645.8,522.5z"/>
			<path id="XMLID_269_" class="st9" d="M613.2,526.7c-8.9-64.2-70.6-77.7-55.1-39.6C571.3,519.5,620.6,528.4,613.2,526.7z"/>
			<g id="XMLID_262_">
				<g id="XMLID_267_">
					<path id="XMLID_268_" class="st2" d="M628.3,545c0,0,5.5-21.5-2.7-75.1c-0.2-1.3,1.8-1.6,2-0.3c0.1,0.6,8.8,58.6,2,74.8
						C629.4,544.9,628.8,545.2,628.3,545z"/>
				</g>
				<g id="XMLID_265_">
					<path id="XMLID_266_" class="st2" d="M628.4,544.9c-6.9-2.6,30.3-69.4,52.8-92.9c0.9-1,2.4,0.4,1.5,1.4
						c-2.9,3-42.5,53.1-51.6,85.3c21.1-29.9,45.1-36,45.6-32.6c0.1,0.6-0.3,1.1-0.9,1.1c-25.4,3.5-45.9,36.9-46.1,37.2
						C629.4,544.9,628.9,545.1,628.4,544.9z"/>
				</g>
				<g id="XMLID_263_">
					<path id="XMLID_264_" class="st2" d="M620.8,544.4c-1.8-7-18.3-38.7-47.2-55c-0.5-0.3-0.7-0.9-0.4-1.4
						c2.7-4.7,43.1,31.2,49.5,55.8c0.1,0.5-0.2,1.1-0.7,1.2C621.5,545.2,620.9,544.9,620.8,544.4z"/>
				</g>
			</g>
		</g>
		<path id="XMLID_260_" class="st10" d="M669,585.4c6.8-3,2.4-9.9-2.2-7.8c-25.3,11.4-54.4,11.4-79.7,0c-2-0.9-4.4,0-5.4,2
			c-1.9,4.2,2.9,5.7,4.4,6.3c-32.6,77.4-34,76.7-28.9,78.9c5.1,2.2,3.7,1.6,36.4-76c9.7,3.2,19.8,5,29.9,5.3v75.1
			c0,5.3,8.1,5.3,8.1,0v-75.1c10.1-0.5,20.1-2.4,29.7-5.7c33.7,80,31.3,76.8,35.1,76.8c0.5,0,1.1-0.1,1.6-0.3
			C703.3,662.6,701.9,663.3,669,585.4z"/>
		<g id="XMLID_257_">
			<path id="XMLID_259_" class="st13" d="M616.5,545.3c-1.3-0.3-2.6,0.1-2.8,0.3c-0.4,0.3-1.1,0.3-1.4-0.2c-1.5-2,4.4-3.2,6.8-1
				c1.8-1.1,6.3-3.2,11.3-0.4c4.6-2.6,9.1,0.7,7.9,2.1c-0.4,0.4-1,0.5-1.4,0.1c-2.7-2.3-5.7-0.2-5.8-0.1c-0.3,0.2-0.8,0.3-1.1,0
				c-5.3-3.5-10.2,0.4-10.2,0.5C618.6,547.3,617.9,545.6,616.5,545.3z"/>
		</g>
		<g id="XMLID_138_">
			<path id="XMLID_139_" class="st13" d="M591.9,545.9c-1.2-0.6-0.2-2.4,1-1.8c13.2,7.2,54.8,7.2,68.5-0.1c0.5-0.3,1.1-0.1,1.4,0.4
				c0.3,0.5,0.1,1.1-0.4,1.4C648.2,553.3,605.4,553.3,591.9,545.9z"/>
		</g>
	</g>
	<g>
		<g>
			
				<image style="overflow:visible;" width="1753" height="575" xlink:href="859AACA2.png"  transform="matrix(8.078066e-02 0 0 8.078066e-02 308.5364 385.3719)">
			</image>
		</g>
		<g>
			<g>
				<path class="st3" d="M361.9,573c0,0-19.1,6.6-26.4,7.5c-7.3,0.9-34.3,1.9-41.7-2.5c-13.2-7.8-8.7-24-0.5-25.4
					c8.2-1.4,23.9,2.6,37.3,3.7c10,0.8,25.1-4.3,25.1-4.3L361.9,573z"/>
				<path class="st10" d="M314.2,488.6c0,0-57.8-19-73.6-8.8c-15.7,10.2-13.4,37.1-5.1,47c5.1,6.1,19,21,52.4,29.5l97.5,17.9
					l14.2-14.7l-24-65.9L314.2,488.6z"/>
				<path class="st10" d="M428.5,488.6c0,0,57.8-19,73.6-8.8c15.7,10.2,14,35.8,5.7,45.8c-5.1,6.1-12,10.3-19.3,14.7
					c-7.1,4.3-75.7,31.7-130.9,34.1c-9-4.5-14.4-15-14.4-15l24-65.9L428.5,488.6z"/>
				<path class="st14" d="M379.7,545.4c0,0,13-5.8,41.1-20.6c26.6-14.1,30.5-13.5,44.9-14L379.7,545.4z"/>
				<path class="st3" d="M381.2,573c0,0,19.1,6.6,26.4,7.5c7.3,0.9,34.3,1.9,41.7-2.5c13.2-7.8,8.7-24,0.5-25.4
					c-8.2-1.4-23.9,2.6-37.3,3.7c-10,0.8-25.1-4.3-25.1-4.3S389.7,562.5,381.2,573z"/>
				<path class="st14" d="M385.7,551c0,0-20.8-7.1-48.9-21.9c-26.6-14.1-45.4-17.8-59.8-18.3L385.7,551z"/>
			</g>
			<polygon class="st15" points="441.5,514.7 310.9,514.7 305.1,483.8 448.1,482.3 			"/>
			<g>
				<path class="st3" d="M426,508.3l-21.4-2.2l39.3-58l-12.8-44l-15.6,76.7h-76l-13.4-74l-17.2,43.6l41.6,55.6l-21.4,2.2
					c0,0-62.8-34-54.7-63.4c8.1-29.4,26.5-85.2,41.3-94.7c9-5.8,16.5-6.1,26.5-8.8c0.6-0.2,1.2-0.3,1.8-0.5
					c8.5-2.1,14.7-3.1,14.7-3.1h37.9c0,0,5.5,0.9,13.2,2.7c1.1,0.3,2.2,0.5,3.3,0.8c9.9,2.6,20,5.2,29,11.1
					c14.8,9.6,34,69.6,35.6,93.6C479.2,470.2,426,508.3,426,508.3z"/>
				<g>
					<polygon class="st16" points="377.1,358.4 377.1,358.4 377.1,358.4 377.1,358.4 377.1,358.4 377.1,358.3 377.1,358.4 					"/>
					<polygon class="st16" points="377.1,358.4 377.1,358.4 377.1,358.4 377.1,358.4 377.1,358.4 377.1,358.4 377.1,358.3 					"/>
				</g>
				<path class="st17" d="M395.8,335.2v-13.1H360v13.1c0,0-7.7,3.7-16.2,5.9c4.8,11.1,17.6,19.1,32.8,19.1c15.3,0,28.4-8.2,33-19.5
					C402,338.8,395.8,335.2,395.8,335.2z"/>
				<path class="st17" d="M377.9,331.8L377.9,331.8c-12.6,0-31.3-14-31.3-31.3v-15.8c0-17.3,14-31.4,31.3-31.4l0,0
					c17.3,0,31.4,14,31.4,31.4v15.8C409.3,317.7,391.5,331.8,377.9,331.8z"/>
				<path class="st17" d="M415.8,291c0,5.1-2.1,10.8-6.1,10.8c-4,0-7.2-4.2-7.2-9.3c0-5.1,3.2-9.3,7.2-9.3
					C413.7,283.2,415.8,285.9,415.8,291z"/>
				<path class="st17" d="M338.9,291.2c0,5.1,3.5,10.7,7.8,10.7c4.3,0,7.3-4.2,7.3-9.3c0-5.1-3.5-9.3-7.7-9.3
					C342,283.2,338.9,286,338.9,291.2z"/>
				<path class="st18" d="M346.2,294.1c0,0-15.6-38.5,2.4-44.2c0,0,20.2-26.7,45.7-6c0,0,7.5-2.9,15.4,4.4c7.9,7.3,0,43.9,0,43.9
					l-3.2-0.1c0,0,1.1-6.1-4-10.1c-4.4-3.4-2.2-10.8-2.2-10.8s-31,11.7-48,0.1c0,0,2.4,7.7-0.6,11.3c-3,3.6-2.6,11.4-2.6,11.4H346.2
					z"/>
			</g>
			<path class="st4" d="M441.9,509.2c-0.2,3-2.8,5.4-5.8,5.4H316.3c-3,0-5.6-2.4-5.8-5.4l-5-83.5c-0.2-3,2.1-5.4,5.1-5.4h131.6
				c3,0,5.3,2.4,5.1,5.4L441.9,509.2z"/>
			<path class="st19" d="M386.2,467.7c0,5.1-4.1,9.2-9.2,9.2c-5.1,0-9.2-4.1-9.2-9.2c0-5.1,4.1-9.2,9.2-9.2
				C382.1,458.6,386.2,462.7,386.2,467.7z"/>
		</g>
	</g>
	<g>
		<rect x="734.5" y="76.7" class="st9" width="3.2" height="6.8"/>
		<rect x="734.5" y="88.9" class="st9" width="3.2" height="6.8"/>
		
			<rect x="741.1" y="82.7" transform="matrix(6.123234e-17 -1 1 6.123234e-17 656.5376 828.7841)" class="st9" width="3.2" height="6.8"/>
		
			<rect x="728.2" y="82.7" transform="matrix(6.123234e-17 -1 1 6.123234e-17 643.642 815.8886)" class="st9" width="3.2" height="6.8"/>
	</g>
	<g>
		<rect x="555.3" y="410.9" class="st9" width="3.2" height="6.8"/>
		<rect x="555.3" y="423.1" class="st9" width="3.2" height="6.8"/>
		
			<rect x="561.9" y="416.9" transform="matrix(6.123234e-17 -1 1 6.123234e-17 143.2406 983.7611)" class="st9" width="3.2" height="6.8"/>
		
			<rect x="549" y="416.9" transform="matrix(6.123234e-17 -1 1 6.123234e-17 130.3451 970.8656)" class="st9" width="3.2" height="6.8"/>
	</g>
	<g>
		<rect x="281.6" y="249.6" class="st9" width="3.2" height="6.8"/>
		<rect x="281.6" y="261.8" class="st9" width="3.2" height="6.8"/>
		
			<rect x="288.2" y="255.5" transform="matrix(6.123234e-17 -1 1 6.123234e-17 30.8236 548.7361)" class="st9" width="3.2" height="6.8"/>
		
			<rect x="275.3" y="255.5" transform="matrix(6.123234e-17 -1 1 6.123234e-17 17.928 535.8405)" class="st9" width="3.2" height="6.8"/>
	</g>
	<g>
		<rect x="335.5" y="100.9" class="st9" width="3.2" height="6.8"/>
		<rect x="335.5" y="113.1" class="st9" width="3.2" height="6.8"/>
		
			<rect x="342" y="106.9" transform="matrix(6.123234e-17 -1 1 6.123234e-17 233.2874 453.9758)" class="st9" width="3.2" height="6.8"/>
		
			<rect x="329.1" y="106.9" transform="matrix(6.123234e-17 -1 1 6.123234e-17 220.3919 441.0803)" class="st9" width="3.2" height="6.8"/>
	</g>
	<g>
		<rect x="460.5" y="278.3" class="st9" width="3.2" height="6.8"/>
		<rect x="460.5" y="290.5" class="st9" width="3.2" height="6.8"/>
		
			<rect x="467.1" y="284.3" transform="matrix(6.123234e-17 -1 1 6.123234e-17 180.9242 756.3888)" class="st9" width="3.2" height="6.8"/>
		
			<rect x="454.2" y="284.3" transform="matrix(6.123234e-17 -1 1 6.123234e-17 168.0286 743.4932)" class="st9" width="3.2" height="6.8"/>
	</g>
	<g>
		<rect x="760.6" y="328.4" class="st9" width="3.2" height="6.8"/>
		<rect x="760.6" y="340.6" class="st9" width="3.2" height="6.8"/>
		
			<rect x="767.2" y="334.4" transform="matrix(6.123234e-17 -1 1 6.123234e-17 430.9492 1106.5966)" class="st9" width="3.2" height="6.8"/>
		
			<rect x="754.3" y="334.4" transform="matrix(6.123234e-17 -1 1 6.123234e-17 418.0536 1093.701)" class="st9" width="3.2" height="6.8"/>
	</g>
	<g>
		<rect x="240.3" y="257.1" class="st0" width="3.2" height="6.8"/>
		<rect x="240.3" y="269.3" class="st0" width="3.2" height="6.8"/>
		
			<rect x="246.9" y="263.1" transform="matrix(6.123234e-17 -1 1 6.123234e-17 -18.0531 514.9858)" class="st0" width="3.2" height="6.8"/>
		
			<rect x="234" y="263.1" transform="matrix(6.123234e-17 -1 1 6.123234e-17 -30.9486 502.0903)" class="st0" width="3.2" height="6.8"/>
	</g>
	<g>
		<g>
			<g>
				<path class="st0" d="M514.1,383.4v49.2c0,2.1-1.7,3.8-3.8,3.8H430c-2.1,0-3.8-1.7-3.8-3.8v-49.2c0-2.1,1.7-3.8,3.8-3.8h80.3
					C512.4,379.6,514.1,381.3,514.1,383.4z"/>
			</g>
			<g>
				<path class="st10" d="M514.1,383.4v3.9h-87.9v-3.9c0-2.1,1.7-3.8,3.8-3.8h80.3C512.4,379.6,514.1,381.3,514.1,383.4z"/>
				<g>
					<path class="st2" d="M443.6,383.4c0,1.2-1,2.2-2.2,2.2c-1.2,0-2.2-1-2.2-2.2c0-1.2,1-2.2,2.2-2.2
						C442.6,381.3,443.6,382.2,443.6,383.4z"/>
					<path class="st4" d="M437.9,383.4c0,1.2-1,2.2-2.2,2.2s-2.2-1-2.2-2.2c0-1.2,1-2.2,2.2-2.2S437.9,382.2,437.9,383.4z"/>
					<path class="st3" d="M432.1,383.4c0,1.2-1,2.2-2.2,2.2s-2.2-1-2.2-2.2c0-1.2,1-2.2,2.2-2.2S432.1,382.2,432.1,383.4z"/>
				</g>
			</g>
		</g>
		<g>
			<path class="st10" d="M459.6,403.3l-3.8,4.5c-1.4-1.8-3.4-2.9-5.3-2.9c-3,0-5.3,2.4-5.3,5.7c0,3.3,2.3,5.7,5.3,5.7
				c1.7,0,3.8-1,5.3-2.6l3.8,4c-2.4,2.6-6,4.3-9.4,4.3c-6.7,0-11.7-4.9-11.7-11.4c0-6.5,5.1-11.2,11.9-11.2
				C453.8,399.4,457.4,400.9,459.6,403.3z"/>
			<path class="st10" d="M469.9,413.4v5.2h-4v-5.2h-5.2v-4h5.2v-5.2h4v5.2h5.2v4H469.9z"/>
			<path class="st10" d="M486.2,413.4v5.2h-4v-5.2H477v-4h5.2v-5.2h4v5.2h5.2v4H486.2z"/>
		</g>
	</g>
	<g>
		<g>
			<g>
				<g>
					<path class="st1" d="M480.8,91.2v54.4c0,2.3-1.9,4.2-4.2,4.2H388c-2.3,0-4.2-1.9-4.2-4.2V91.2c0-2.3,1.9-4.2,4.2-4.2h88.6
						C478.9,87,480.8,88.8,480.8,91.2z"/>
				</g>
			</g>
			<g>
				<path class="st2" d="M480.8,91.2v4.3h-97v-4.3c0-2.3,1.9-4.2,4.2-4.2h88.6C478.9,87,480.8,88.8,480.8,91.2z"/>
				<g>
					<path class="st9" d="M403,91.2c0,1.3-1.1,2.4-2.4,2.4c-1.3,0-2.4-1.1-2.4-2.4c0-1.3,1.1-2.4,2.4-2.4
						C401.9,88.8,403,89.9,403,91.2z"/>
					<path class="st4" d="M396.7,91.2c0,1.3-1.1,2.4-2.4,2.4c-1.3,0-2.4-1.1-2.4-2.4c0-1.3,1.1-2.4,2.4-2.4
						C395.7,88.8,396.7,89.9,396.7,91.2z"/>
					<path class="st3" d="M390.4,91.2c0,1.3-1.1,2.4-2.4,2.4c-1.3,0-2.4-1.1-2.4-2.4c0-1.3,1.1-2.4,2.4-2.4
						C389.3,88.8,390.4,89.9,390.4,91.2z"/>
				</g>
			</g>
		</g>
		<g>
			<path class="st3" d="M405.7,130.2v-7H399v7h-5.6v-18.8h5.6v7.5h6.7v-7.5h5.6v18.8H405.7z"/>
			<path class="st3" d="M424.1,115.8v14.4h-5.6v-14.4h-5.5v-4.5h16.5v4.5H424.1z"/>
			<path class="st3" d="M447.5,130.2l0-11.1l-3.8,9.3h-3.7l-3.8-9.3v11.1h-4.9v-18.8h6l4.5,10.4l4.5-10.4h6v18.8H447.5z"/>
			<path class="st3" d="M469.1,125.5v4.7h-13.5v-18.8h5.6v14.2H469.1z"/>
		</g>
	</g>
	<g>
		<path class="st10" d="M779.1,170.6h-46.3c-1.2,0-2.2-1-2.2-2.2V122c0-1.2,1-2.2,2.2-2.2h46.3c1.2,0,2.2,1,2.2,2.2v46.3
			C781.4,169.6,780.4,170.6,779.1,170.6z"/>
		<g>
			<path class="st0" d="M749.6,143.2l-7.1,2.4l7.1,2.4v4l-11.9-4.3v-4.2l11.9-4.3V143.2z"/>
			<path class="st0" d="M757.6,134.2h4.7l-7.7,22h-4.7L757.6,134.2z"/>
			<path class="st0" d="M774.3,143.6v4.2l-11.9,4.3v-4l7.1-2.4l-7.1-2.4v-4L774.3,143.6z"/>
		</g>
	</g>
	<g>
		<g>
			<path class="st10" d="M522.6,248.2h-38.3c-1,0-1.9-0.8-1.9-1.9V208c0-1,0.8-1.9,1.9-1.9h38.3c1,0,1.9,0.8,1.9,1.9v38.3
				C524.5,247.4,523.7,248.2,522.6,248.2z"/>
		</g>
		<g>
			<path class="st0" d="M507.6,239.8c0,2.3-1.8,4.1-4,4.1c-2.3,0-4.1-1.8-4.1-4c0-2.3,1.8-4.1,4-4.1
				C505.7,235.8,507.6,237.6,507.6,239.8z"/>
			<path class="st0" d="M515.2,220.6c-6.9-5.2-16.6-5.1-23.4,0.2c-1.1,0.8-2.6,1-3.5,0.1l0,0c-0.9-0.8-0.6-2.6,0.8-3.6
				c8.4-6.6,20.2-6.7,28.7-0.3c1.4,1,1.7,2.8,0.8,3.6l0,0C517.8,221.5,516.3,221.4,515.2,220.6z"/>
			<path class="st0" d="M511.3,227.1c-4.7-3.2-10.9-3.1-15.5,0.1c-1.1,0.8-2.6,0.9-3.5,0.1l0,0c-0.9-0.8-0.5-2.6,1-3.7
				c6.1-4.3,14.3-4.4,20.5-0.2c1.5,1,1.9,2.8,1,3.7l0,0C513.9,227.9,512.4,227.8,511.3,227.1z"/>
			<path class="st0" d="M507.1,233.6c-2.3-1.1-5-1.1-7.3,0.1c-1.1,0.6-2.7,0.7-3.6-0.1l0,0c-0.9-0.8-0.4-2.8,1.5-3.8
				c3.5-1.8,7.7-1.9,11.2-0.1c1.9,1,2.5,3,1.6,3.8l0,0C509.7,234.3,508.2,234.2,507.1,233.6z"/>
		</g>
	</g>
	<g>
		<g>
			<g>
				<path class="st4" d="M276.6,427.5h-41.5c-1.1,0-2-0.9-2-2V384c0-1.1,0.9-2,2-2h41.5c1.1,0,2,0.9,2,2v41.5
					C278.6,426.6,277.7,427.5,276.6,427.5z"/>
			</g>
		</g>
		<g>
			<path class="st0" d="M249.3,401.2l-2.1,2.5c-0.8-1-1.9-1.7-3-1.7c-1.7,0-3,1.4-3,3.2c0,1.8,1.3,3.2,3,3.2c1,0,2.1-0.6,3-1.4
				l2.1,2.3c-1.3,1.5-3.4,2.4-5.3,2.4c-3.8,0-6.6-2.7-6.6-6.4c0-3.6,2.8-6.3,6.7-6.3C246,399,248,399.9,249.3,401.2z"/>
			<path class="st0" d="M260.7,400.4l-1.4,2.8c-1.3-0.7-3.1-1.4-4.1-1.4c-0.6,0-1,0.2-1,0.7c0,1.8,6.5,0.7,6.5,5.2
				c0,2.6-2.3,3.9-5.1,3.9c-2.1,0-4.4-0.7-6-2l1.4-2.8c1.3,1.1,3.4,1.9,4.6,1.9c0.8,0,1.3-0.3,1.3-0.8c0-1.9-6.5-0.7-6.5-5.1
				c0-2.4,2-3.9,5.1-3.9C257.4,399,259.4,399.6,260.7,400.4z"/>
			<path class="st0" d="M272.4,400.4l-1.4,2.8c-1.3-0.7-3.1-1.4-4.1-1.4c-0.6,0-1,0.2-1,0.7c0,1.8,6.5,0.7,6.5,5.2
				c0,2.6-2.3,3.9-5.1,3.9c-2.1,0-4.4-0.7-6-2l1.4-2.8c1.3,1.1,3.4,1.9,4.6,1.9c0.8,0,1.3-0.3,1.3-0.8c0-1.9-6.5-0.7-6.5-5.1
				c0-2.4,2-3.9,5.1-3.9C269.1,399,271,399.6,272.4,400.4z"/>
		</g>
	</g>
	<g>
		<g>
			<g>
				<path class="st4" d="M360.1,206.2h89.8c1.6,0,2.8-1.3,2.8-2.8v-29c0-1.6-1.3-2.8-2.8-2.8h-89.8c-1.6,0-2.8,1.3-2.8,2.8v29
					C357.3,204.9,358.6,206.2,360.1,206.2z"/>
				<polygon class="st4" points="357.3,197.9 357.3,219.6 368.2,205.2 				"/>
			</g>
		</g>
		<g>
			<path class="st10" d="M379.7,189.1c0,3.3-1.9,5.4-4.9,5.4c-1.3,0-2.3-0.5-3-1.4v5.1h-4v-14.5h4v1.2c0.7-0.9,1.7-1.4,2.9-1.4
				C377.8,183.5,379.7,185.7,379.7,189.1z M375.7,189c0-1.4-0.8-2.4-2-2.4c-1.1,0-1.9,1-1.9,2.4c0,1.4,0.8,2.4,1.9,2.4
				C375,191.4,375.7,190.4,375.7,189z"/>
			<path class="st10" d="M392.7,187.6v6.8h-4v-5.7c0-1.1-0.6-1.7-1.5-1.7c-1.1,0-1.8,0.9-1.8,2.1v5.3h-4v-14.6h4v5.6
				c0.7-1.2,1.9-1.8,3.4-1.8C391.1,183.5,392.7,185.1,392.7,187.6z"/>
			<path class="st10" d="M401.1,195.3c-0.8,2.1-2.3,3.1-4.5,3.1c-1.3,0-2.4-0.4-3.4-1.2l1.7-2.7c0.5,0.4,0.9,0.6,1.4,0.6
				c0.5,0,0.9-0.2,1.2-0.7l0.2-0.4l-4.4-10.4h4.1l2.3,6.6l2-6.6h4L401.1,195.3z"/>
			<path class="st10" d="M414,193.9c-0.7,0.4-1.9,0.7-3,0.7c-2.3,0-3.8-1.3-3.8-3.5v-4.3h-1.5v-2.5h1.5v-3h4v3h2.6v2.5h-2.6v3.7
				c0,0.7,0.4,1,0.9,1c0.3,0,0.7-0.1,1.2-0.3L414,193.9z"/>
			<path class="st10" d="M426.6,189c0,3.3-2.3,5.5-6,5.5c-3.6,0-6-2.2-6-5.5c0-3.3,2.4-5.5,6-5.5C424.2,183.5,426.6,185.7,426.6,189
				z M418.7,189.1c0,1.4,0.8,2.4,2,2.4c1.2,0,1.9-0.9,1.9-2.4c0-1.4-0.8-2.4-1.9-2.4C419.4,186.7,418.7,187.6,418.7,189.1z"/>
			<path class="st10" d="M439.4,187.6v6.8h-4v-5.7c0-1.1-0.6-1.7-1.5-1.7c-1.1,0-1.8,0.9-1.8,2.1v5.3h-4v-10.7h4v1.7
				c0.7-1.2,1.9-1.8,3.4-1.8C437.8,183.5,439.4,185.1,439.4,187.6z"/>
		</g>
	</g>
	<g>
		<g>
			<g>
				<path class="st0" d="M387.7,399.5h-76.6c-1.6,0-2.8-1.3-2.8-2.8v-24.2c0-1.6,1.3-2.8,2.8-2.8h76.6c1.6,0,2.8,1.3,2.8,2.8v24.2
					C390.5,398.3,389.3,399.5,387.7,399.5z"/>
				<polygon class="st0" points="390.5,392.4 390.5,411.1 381.1,398.7 				"/>
			</g>
		</g>
		<g>
			<path class="st4" d="M319,383.9l5.5,2.1v2.4l-7.7-3.1v-2.7l7.7-3.1v2.4L319,383.9z"/>
			<path class="st4" d="M334.4,382.4l-2.6,1.3c-0.3-0.6-0.8-0.9-1.5-0.9c-0.9,0-1.5,0.8-1.5,2c0,1.2,0.6,2,1.5,2
				c0.7,0,1.2-0.3,1.5-1l2.7,1.3c-0.7,1.5-2.3,2.4-4.3,2.4c-2.9,0-4.8-1.9-4.8-4.7c0-2.9,1.9-4.8,4.8-4.8
				C332.1,380,333.7,380.9,334.4,382.4z"/>
			<path class="st4" d="M344.9,384.8c0,2.9-2,4.7-5.1,4.7c-3.1,0-5.1-1.9-5.1-4.7c0-2.9,2-4.7,5.1-4.7
				C342.9,380,344.9,381.9,344.9,384.8z M338.1,384.8c0,1.2,0.7,2.1,1.7,2.1c1,0,1.7-0.8,1.7-2.1c0-1.2-0.7-2.1-1.7-2.1
				C338.8,382.8,338.1,383.6,338.1,384.8z"/>
			<path class="st4" d="M355.8,389.4h-3.4v-1.1c-0.6,0.7-1.5,1.2-2.5,1.2c-2.6,0-4.3-1.9-4.3-4.8c0-2.8,1.7-4.7,4.2-4.7
				c1.1,0,2,0.4,2.6,1.2v-4.4h3.4V389.4z M352.4,384.8c0-1.2-0.7-2.1-1.7-2.1c-1,0-1.7,0.8-1.7,2.1c0,1.2,0.7,2.1,1.7,2.1
				C351.7,386.9,352.4,386,352.4,384.8z"/>
			<path class="st4" d="M366.9,385.6h-6.2c0.3,0.9,0.9,1.4,1.8,1.4c0.7,0,1.4-0.3,2-0.9l1.8,1.7c-1,1.1-2.4,1.7-4.1,1.7
				c-3.1,0-5-1.9-5-4.7c0-2.9,2-4.8,4.9-4.8C365.4,380,367.2,382.2,366.9,385.6z M363.6,383.9c0-0.9-0.6-1.6-1.4-1.6
				c-0.8,0-1.3,0.6-1.5,1.6H363.6z"/>
			<path class="st4" d="M373.3,383.8l-5.5-2.1v-2.4l7.7,3.1v2.7l-7.7,3.1v-2.4L373.3,383.8z"/>
		</g>
	</g>
	<g>
		<g>
			<rect x="221.5" y="151.2" class="st9" width="98.7" height="82.8"/>
			<rect x="221.5" y="143.7" class="st2" width="98.7" height="7.5"/>
			<g>
				<rect x="225.6" y="156.8" class="st20" width="26.7" height="3.3"/>
				<rect x="243.1" y="162.5" class="st20" width="42.7" height="3.3"/>
				<g>
					<rect x="243.1" y="168.2" class="st20" width="29.6" height="3.3"/>
					<rect x="275.7" y="168.2" class="st21" width="13.1" height="3.3"/>
				</g>
				<g>
					<rect x="253.8" y="174" class="st21" width="10.7" height="3.3"/>
					<rect x="267.4" y="174" class="st22" width="10.7" height="3.3"/>
				</g>
				<rect x="253.8" y="179.7" class="st22" width="29.6" height="3.3"/>
				<g>
					<rect x="253.8" y="185.5" class="st20" width="13.4" height="3.3"/>
					<rect x="270.1" y="185.5" class="st21" width="29.3" height="3.3"/>
				</g>
				<g>
					<rect x="264.4" y="191.2" class="st22" width="10.7" height="3.3"/>
					<rect x="278" y="191.2" class="st21" width="10.7" height="3.3"/>
				</g>
				<rect x="264.4" y="197" class="st20" width="29.6" height="3.3"/>
				<g class="st23">
					<rect x="264.4" y="202.7" class="st20" width="21.3" height="3.3"/>
					<rect x="288.7" y="202.7" class="st20" width="21.3" height="3.3"/>
				</g>
				<g>
					<rect x="275.1" y="208.5" class="st20" width="16.2" height="3.3"/>
					<rect x="294.3" y="208.5" class="st20" width="5.1" height="3.3"/>
				</g>
				<rect x="275.1" y="214.2" class="st20" width="20.2" height="3.3"/>
				<rect x="275.1" y="220" class="st20" width="10.7" height="3.3"/>
			</g>
			<rect x="224.7" y="145.8" class="st3" width="3.2" height="3.2"/>
			<rect x="230.2" y="145.8" class="st4" width="3.2" height="3.2"/>
			<rect x="235.7" y="145.8" class="st9" width="3.2" height="3.2"/>
		</g>
		<g>
			<path class="st24" d="M231.9,219.7L231.9,219.7c-2.3-2.3-2.3-6.1,0-8.4l40.8-40.8l8.4,8.4l-40.8,40.8
				C238,222,234.2,222,231.9,219.7z"/>
			
				<ellipse transform="matrix(0.1583 -0.9874 0.9874 0.1583 62.3205 420.5961)" class="st24" cx="277.8" cy="173.7" rx="26.3" ry="26.3"/>
			<g>
				<defs>
					
						<ellipse id="SVGID_1_" transform="matrix(0.9642 -0.2653 0.2653 0.9642 -36.1368 79.934)" cx="277.8" cy="173.7" rx="20.4" ry="20.4"/>
				</defs>
				<use xlink:href="#SVGID_1_"  style="overflow:visible;fill:#4BA1A4;"/>
				<clipPath id="SVGID_00000006694639598415166140000000681357546063321221_">
					<use xlink:href="#SVGID_1_"  style="overflow:visible;"/>
				</clipPath>
				<g style="clip-path:url(#SVGID_00000006694639598415166140000000681357546063321221_);">
					<path class="st24" d="M245.3,183.8H233V166h12.3V183.8z M235.9,180.9h6.5v-12.1h-6.5V180.9z"/>
					<rect x="250.5" y="166" class="st24" width="2.9" height="17.9"/>
					<path class="st0" d="M271.7,183.8h-12.3V166h12.3V183.8z M262.3,180.9h6.5v-12.1h-6.5V180.9z"/>
					<rect x="276.9" y="166" class="st0" width="2.9" height="17.9"/>
					<path class="st0" d="M306.2,183.8h-12.3V166h12.3V183.8z M296.8,180.9h6.5v-12.1h-6.5V180.9z"/>
					<rect x="285.7" y="166" class="st0" width="2.9" height="17.9"/>
				</g>
			</g>
		</g>
	</g>
	<g>
		
			<ellipse transform="matrix(0.9487 -0.3162 0.3162 0.9487 -90.0159 264.4008)" class="st9" cx="769.6" cy="409.6" rx="40" ry="40"/>
		<path class="st10" d="M769.6,433.4c-13.2,0-23.9-10.7-23.9-23.9c0-13.2,10.7-23.9,23.9-23.9c13.2,0,23.9,10.7,23.9,23.9
			C793.5,422.7,782.8,433.4,769.6,433.4z M769.6,393.5c-8.8,0-16,7.2-16,16c0,8.8,7.2,16,16,16c8.8,0,16-7.2,16-16
			C785.7,400.7,778.5,393.5,769.6,393.5z"/>
		<polygon class="st10" points="769.6,409.6 721.6,415.1 732.2,425.7 702.5,455.5 708.9,461.8 713.1,466.1 717.4,470.3 723.7,476.7 
			753.5,447 764.1,457.6 		"/>
	</g>
	<g>
		<path class="st10" d="M249.9,298.7c0,0,0-0.3,0-0.7c0-0.2-0.1-0.5-0.1-0.7c0-0.3-0.1-0.5-0.2-0.8c-0.1-0.3-0.2-0.5-0.3-0.8
			c0-0.1-0.1-0.2-0.1-0.4c-0.1-0.1-0.1-0.2-0.1-0.3c-0.1-0.2-0.2-0.3-0.2-0.5c-0.1-0.1-0.1-0.2-0.1-0.2l1.8-1c0,0,0-0.1-0.1-0.2
			c-0.1-0.1-0.2-0.3-0.3-0.5c-0.2-0.2-0.3-0.5-0.5-0.7c-0.2-0.2-0.4-0.5-0.7-0.8c-0.3-0.2-0.5-0.5-0.8-0.7c-0.3-0.2-0.5-0.4-0.7-0.5
			c-0.2-0.2-0.4-0.3-0.5-0.3c-0.1-0.1-0.2-0.1-0.2-0.1l-1,1.8c0,0-0.1,0-0.2-0.1c-0.1-0.1-0.3-0.1-0.5-0.2c-0.1,0-0.2-0.1-0.3-0.1
			c-0.1,0-0.2-0.1-0.4-0.1c-0.2-0.1-0.5-0.2-0.8-0.3c-0.3-0.1-0.5-0.1-0.8-0.2c-0.3,0-0.5-0.1-0.7-0.1c-0.4,0-0.7,0-0.7,0V288
			c0,0-0.3,0-0.9,0c-0.3,0-0.6,0.1-0.9,0.1c-0.3,0-0.7,0.1-1,0.2c-0.3,0.1-0.7,0.2-1,0.3c-0.2,0.1-0.3,0.1-0.4,0.2
			c-0.1,0.1-0.3,0.1-0.4,0.2c-0.2,0.1-0.4,0.2-0.6,0.3c-0.1,0.1-0.2,0.1-0.2,0.1l1,1.8c0,0-0.1,0-0.2,0.1c-0.1,0.1-0.3,0.1-0.4,0.3
			c-0.2,0.1-0.4,0.3-0.6,0.4c-0.2,0.2-0.4,0.4-0.6,0.6c-0.2,0.2-0.4,0.4-0.6,0.6c-0.2,0.2-0.3,0.4-0.4,0.6c-0.1,0.2-0.2,0.3-0.3,0.4
			c-0.1,0.1-0.1,0.2-0.1,0.2l-1.8-1c0,0,0,0.1-0.1,0.2c-0.1,0.1-0.2,0.3-0.3,0.6c-0.1,0.1-0.1,0.2-0.2,0.4c-0.1,0.1-0.1,0.3-0.2,0.4
			c-0.1,0.3-0.2,0.6-0.3,1c-0.1,0.3-0.2,0.7-0.2,1c0,0.3-0.1,0.6-0.1,0.9c0,0.5,0,0.9,0,0.9h2.1c0,0,0,0.3,0,0.7
			c0,0.2,0.1,0.5,0.1,0.7c0,0.3,0.1,0.5,0.2,0.8c0.1,0.3,0.2,0.5,0.3,0.8c0,0.1,0.1,0.2,0.1,0.4c0.1,0.1,0.1,0.2,0.1,0.3
			c0.1,0.2,0.2,0.3,0.2,0.5c0.1,0.1,0.1,0.2,0.1,0.2l-1.8,1c0,0,0,0.1,0.1,0.2c0.1,0.1,0.2,0.3,0.3,0.5c0.2,0.2,0.3,0.5,0.5,0.7
			c0.2,0.2,0.4,0.5,0.7,0.8c0.3,0.2,0.5,0.5,0.8,0.7c0.3,0.2,0.5,0.4,0.7,0.5c0.2,0.2,0.4,0.3,0.5,0.3c0.1,0.1,0.2,0.1,0.2,0.1
			l1-1.8c0,0,0.1,0,0.2,0.1c0.1,0.1,0.3,0.1,0.5,0.2c0.1,0,0.2,0.1,0.3,0.1c0.1,0,0.2,0.1,0.4,0.1c0.2,0.1,0.5,0.2,0.8,0.3
			c0.3,0.1,0.5,0.1,0.8,0.2c0.3,0,0.5,0.1,0.7,0.1c0.4,0,0.7,0,0.7,0v2.1c0,0,0.3,0,0.9,0c0.3,0,0.6-0.1,0.9-0.1
			c0.3,0,0.7-0.1,1-0.2c0.3-0.1,0.7-0.2,1-0.3c0.2-0.1,0.3-0.1,0.4-0.2c0.1-0.1,0.3-0.1,0.4-0.2c0.2-0.1,0.4-0.2,0.6-0.3
			c0.1-0.1,0.2-0.1,0.2-0.1l-1-1.8c0,0,0.1,0,0.2-0.1c0.1-0.1,0.3-0.1,0.4-0.3c0.2-0.1,0.4-0.3,0.6-0.4c0.2-0.2,0.4-0.4,0.6-0.6
			c0.2-0.2,0.4-0.4,0.6-0.6c0.2-0.2,0.3-0.4,0.4-0.6c0.1-0.2,0.2-0.3,0.3-0.4c0.1-0.1,0.1-0.2,0.1-0.2l1.8,1c0,0,0-0.1,0.1-0.2
			c0.1-0.1,0.2-0.3,0.3-0.6c0.1-0.1,0.1-0.2,0.2-0.4c0.1-0.1,0.1-0.3,0.2-0.4c0.1-0.3,0.2-0.6,0.3-1c0.1-0.3,0.2-0.7,0.2-1
			c0-0.3,0.1-0.6,0.1-0.9c0-0.5,0-0.9,0-0.9H249.9z M241.4,303.5c-2.7,0-4.9-2.2-4.9-4.9c0-2.7,2.2-4.9,4.9-4.9
			c2.7,0,4.9,2.2,4.9,4.9C246.2,301.3,244.1,303.5,241.4,303.5z"/>
		<g>
			<path class="st10" d="M234.6,279c0,0,0-0.3-0.1-0.6c0-0.2-0.1-0.4-0.1-0.7c-0.1-0.2-0.1-0.5-0.2-0.7c-0.1-0.3-0.1-0.5-0.2-0.7
				c-0.1-0.2-0.2-0.4-0.2-0.6c-0.1-0.2-0.2-0.3-0.2-0.4c0-0.1-0.1-0.2-0.1-0.2l1.8-0.9c0,0-0.1-0.3-0.3-0.7
				c-0.1-0.2-0.3-0.4-0.4-0.7c-0.1-0.2-0.3-0.5-0.5-0.7c-0.2-0.2-0.4-0.5-0.5-0.7c-0.2-0.2-0.4-0.4-0.5-0.6
				c-0.2-0.2-0.3-0.3-0.4-0.4c-0.1-0.1-0.1-0.1-0.1-0.1l-1.4,1.5c0,0-0.2-0.2-0.5-0.4c-0.3-0.3-0.7-0.6-1.1-0.9
				c-0.2-0.2-0.4-0.3-0.7-0.4c-0.2-0.1-0.4-0.3-0.6-0.3c-0.4-0.2-0.6-0.3-0.6-0.3l0.8-1.9c0,0-0.1,0-0.2-0.1
				c-0.1-0.1-0.3-0.1-0.5-0.2c-0.2-0.1-0.5-0.2-0.7-0.3c-0.3-0.1-0.6-0.2-0.9-0.2c-0.6-0.2-1.2-0.3-1.7-0.3c-0.2,0-0.4-0.1-0.6-0.1
				c-0.1,0-0.2,0-0.2,0l-0.2,2c0,0-0.3,0-0.7,0c-0.4,0-0.9,0-1.4,0c-0.5,0.1-1,0.1-1.4,0.2c-0.4,0.1-0.6,0.2-0.6,0.2l-0.5-2
				c0,0-0.1,0-0.2,0.1c-0.1,0-0.3,0.1-0.5,0.2c-0.4,0.2-1,0.4-1.6,0.6c-0.3,0.1-0.6,0.3-0.8,0.4c-0.2,0.1-0.5,0.3-0.7,0.4
				c-0.2,0.1-0.4,0.2-0.5,0.3c-0.1,0.1-0.2,0.1-0.2,0.1l1.2,1.7c0,0-0.2,0.2-0.5,0.4c-0.2,0.1-0.3,0.3-0.5,0.4
				c-0.2,0.2-0.4,0.3-0.6,0.5c-0.3,0.4-0.7,0.8-0.9,1.1c-0.2,0.3-0.4,0.5-0.4,0.5l-1.7-1.2c0,0-0.1,0.1-0.1,0.2
				c-0.1,0.1-0.2,0.3-0.3,0.5c-0.1,0.2-0.3,0.4-0.4,0.7c-0.1,0.3-0.3,0.5-0.4,0.8c-0.1,0.3-0.2,0.6-0.3,0.8
				c-0.1,0.3-0.2,0.5-0.3,0.7c-0.1,0.4-0.2,0.7-0.2,0.7l2,0.5c0,0,0,0.1,0,0.2c0,0.1-0.1,0.3-0.1,0.5c0,0.2-0.1,0.4-0.1,0.7
				c0,0.2-0.1,0.5-0.1,0.8c0,0.3,0,0.5,0,0.8c0,0.2,0,0.5,0,0.7c0,0.4,0,0.7,0,0.7l-2,0.2c0,0,0,0.3,0.1,0.8c0,0.2,0.1,0.5,0.1,0.8
				c0.1,0.3,0.1,0.6,0.2,0.9c0.1,0.3,0.2,0.6,0.3,0.9c0.1,0.3,0.2,0.5,0.3,0.7c0.1,0.2,0.2,0.4,0.2,0.5c0.1,0.1,0.1,0.2,0.1,0.2
				l1.8-0.9c0,0,0.1,0.2,0.3,0.6c0.1,0.2,0.2,0.4,0.3,0.6c0.1,0.2,0.3,0.4,0.4,0.6c0.2,0.2,0.3,0.4,0.5,0.6c0.2,0.2,0.3,0.4,0.4,0.5
				c0.1,0.1,0.2,0.3,0.3,0.3c0.1,0.1,0.1,0.1,0.1,0.1l-1.4,1.5c0,0,0.2,0.2,0.6,0.5c0.3,0.3,0.8,0.7,1.3,1c0.2,0.2,0.5,0.3,0.8,0.5
				c0.2,0.1,0.5,0.3,0.7,0.4c0.4,0.2,0.7,0.3,0.7,0.3l0.8-1.9c0,0,0.1,0,0.2,0.1c0.1,0.1,0.3,0.1,0.4,0.2c0.2,0.1,0.4,0.1,0.6,0.2
				c0.2,0.1,0.5,0.1,0.7,0.2c0.5,0.2,1,0.2,1.4,0.3c0.2,0,0.4,0.1,0.5,0.1c0.1,0,0.2,0,0.2,0l-0.2,2c0,0,0.3,0,0.8,0
				c0.5,0,1.1,0,1.7-0.1c0.6-0.1,1.2-0.2,1.7-0.3c0.4-0.1,0.7-0.2,0.7-0.2l-0.5-2c0,0,0.1,0,0.2,0c0.1,0,0.3-0.1,0.4-0.1
				c0.4-0.1,0.9-0.3,1.3-0.5c0.2-0.1,0.5-0.2,0.7-0.3c0.2-0.1,0.4-0.2,0.6-0.3c0.2-0.1,0.3-0.2,0.4-0.3c0.1-0.1,0.1-0.1,0.1-0.1
				l1.2,1.7c0,0,0.2-0.2,0.6-0.5c0.2-0.1,0.4-0.3,0.6-0.5c0.2-0.2,0.4-0.4,0.7-0.6c0.4-0.5,0.8-0.9,1.1-1.3c0.3-0.4,0.5-0.6,0.5-0.6
				l-1.7-1.2c0,0,0,0,0.1-0.1c0.1-0.1,0.1-0.2,0.2-0.4c0.1-0.2,0.2-0.4,0.3-0.6c0.1-0.2,0.2-0.5,0.3-0.7c0.1-0.2,0.2-0.5,0.3-0.7
				c0.1-0.2,0.2-0.4,0.2-0.6c0.1-0.4,0.2-0.6,0.2-0.6l2,0.5c0,0,0-0.1,0.1-0.2c0-0.1,0.1-0.3,0.1-0.5c0-0.2,0.1-0.5,0.1-0.8
				c0-0.3,0.1-0.6,0.1-0.9c0-0.3,0-0.6,0-0.9c0-0.3,0-0.6,0-0.8c0-0.5,0-0.8,0-0.8L234.6,279z M223.6,289.4
				c-5.1,0.5-9.7-3.2-10.2-8.3c-0.5-5.1,3.2-9.7,8.3-10.2c5.1-0.5,9.7,3.2,10.2,8.3C232.5,284.4,228.7,288.9,223.6,289.4z"/>
			<path class="st10" d="M227.1,279.7c0.2,2.4-1.5,4.6-4,4.9c-2.4,0.2-4.6-1.5-4.9-4c-0.2-2.4,1.5-4.6,4-4.9
				C224.7,275.5,226.9,277.3,227.1,279.7z"/>
		</g>
		<g>
			<g>
				<path class="st10" d="M232,266.8c0,0,0.1,0.1,0.3,0.3c0.2,0.2,0.5,0.4,0.7,0.6c0.5,0.5,1,1,1,1l3.6-3.1c0,0-0.6-0.7-1.3-1.3
					c-0.3-0.3-0.7-0.6-1-0.8c-0.3-0.2-0.5-0.4-0.5-0.4L232,266.8z M234.1,267.7c0,0-0.3-0.3-0.5-0.5c-0.1-0.1-0.3-0.3-0.4-0.4
					c-0.1-0.1-0.2-0.1-0.2-0.1l2.1-2.5c0,0,0.1,0.1,0.2,0.2c0.1,0.1,0.3,0.3,0.5,0.4c0.3,0.3,0.7,0.7,0.7,0.7L234.1,267.7z"/>
				<polygon class="st10" points="232.8,261.7 233.5,262.1 231,266.1 230.4,265.8 				"/>
				<path class="st10" d="M226.6,264.3c0,0,0.2,0,0.4,0.1c0.1,0,0.3,0.1,0.4,0.1c0.2,0.1,0.3,0.1,0.5,0.2c0.3,0.1,0.7,0.2,0.9,0.3
					c0.2,0.1,0.4,0.2,0.4,0.2l2-4.3c0,0-0.2-0.1-0.5-0.2c-0.3-0.1-0.8-0.3-1.2-0.4c-0.2-0.1-0.4-0.2-0.6-0.2
					c-0.2-0.1-0.4-0.1-0.6-0.1c-0.3-0.1-0.6-0.1-0.6-0.1L226.6,264.3z M228.9,264.2c0,0-0.4-0.1-0.7-0.3c-0.2-0.1-0.4-0.1-0.5-0.2
					c-0.1,0-0.2-0.1-0.2-0.1l0.9-3.1c0,0,0.1,0,0.3,0.1c0.2,0.1,0.4,0.1,0.6,0.2c0.4,0.2,0.9,0.3,0.9,0.3L228.9,264.2z"/>
				<polygon class="st10" points="225.3,259.3 226.2,259.4 225.5,264.1 224.8,264 				"/>
				<path class="st10" d="M218.8,264.5c0,0,0.2,0,0.4-0.1c0.1,0,0.3-0.1,0.4-0.1c0.2,0,0.3-0.1,0.5-0.1c0.3-0.1,0.7-0.1,1-0.2
					c0.1,0,0.2,0,0.3,0c0.1,0,0.1,0,0.1,0l-0.4-4.7c0,0-0.1,0-0.2,0c-0.1,0-0.2,0-0.4,0c-0.3,0.1-0.8,0.1-1.2,0.2
					c-0.2,0-0.4,0.1-0.7,0.1c-0.2,0.1-0.4,0.1-0.6,0.1c-0.3,0.1-0.5,0.1-0.5,0.1L218.8,264.5z M220.9,263.3c0,0-0.4,0.1-0.8,0.1
					c-0.2,0-0.4,0.1-0.5,0.1c-0.1,0-0.2,0.1-0.2,0.1l-0.7-3.1c0-0.1,1.8-0.3,1.8-0.3L220.9,263.3z"/>
				<polygon class="st10" points="215.3,260.6 216.2,260.3 217.7,264.8 217.1,265 				"/>
				<path class="st10" d="M222.7,259.1c0,0,0.9,0,0.9,0l-0.1,4.8c0,0-0.7,0-0.7,0L222.7,259.1z"/>
			</g>
			<g>
				<path class="st10" d="M213.5,266.9c-0.1-0.1,2.4-1.5,2.4-1.4l-2-4.3c0,0-0.2,0.1-0.5,0.2c-0.3,0.1-0.7,0.4-1.1,0.6
					c-0.4,0.2-0.8,0.5-1.1,0.6c-0.3,0.2-0.5,0.3-0.5,0.3L213.5,266.9z M215,265.1c0,0-0.1,0-0.2,0.1c-0.1,0.1-0.3,0.2-0.5,0.3
					c-0.3,0.2-0.7,0.4-0.7,0.4l-1.7-2.7c0,0,0.4-0.2,0.8-0.5c0.2-0.1,0.4-0.2,0.5-0.3c0.1-0.1,0.3-0.1,0.3-0.1L215,265.1z"/>
				<path class="st10" d="M208.9,264.5c0,0,0.2-0.1,0.3-0.3c0.1-0.1,0.2-0.1,0.2-0.2c0.1-0.1,0.1-0.1,0.1-0.1l3,3.7c0,0,0,0-0.1,0.1
					c0,0-0.1,0.1-0.2,0.2c-0.1,0.1-0.2,0.2-0.2,0.2L208.9,264.5z"/>
				<path class="st10" d="M209.3,271.2c0,0,0.4-0.6,0.8-1.1c0.5-0.5,0.9-1.1,0.9-1.1l-3.4-3.3c0,0-0.6,0.7-1.2,1.4
					c-0.5,0.7-1.1,1.5-1.1,1.5L209.3,271.2z M210.1,269c0,0-0.3,0.3-0.5,0.6c-0.2,0.3-0.5,0.6-0.5,0.6l-2.6-1.9c0,0,0.3-0.4,0.6-0.7
					c0.3-0.4,0.6-0.7,0.6-0.7L210.1,269z"/>
				<path class="st10" d="M204.1,270.6c0,0,0.4-0.7,0.4-0.7l4.1,2.4c0,0-0.4,0.6-0.3,0.6L204.1,270.6z"/>
				<path class="st10" d="M206.5,278.6c0,0,0-0.2,0.1-0.4c0-0.3,0.1-0.6,0.2-1c0.2-0.7,0.4-1.4,0.4-1.4l-4.6-1.4
					c0,0-0.2,0.9-0.5,1.8c-0.2,0.9-0.3,1.8-0.3,1.8L206.5,278.6z M206.2,276.3c0,0-0.1,0.4-0.2,0.8c-0.1,0.2-0.1,0.4-0.1,0.5
					c0,0.1,0,0.2,0,0.2l-3.2-0.5c0,0,0-0.1,0-0.3c0-0.2,0.1-0.4,0.1-0.6c0.1-0.4,0.2-0.9,0.2-0.9L206.2,276.3z"/>
				<polygon class="st10" points="201.6,280.4 201.7,279.5 206.4,279.8 206.4,280.4 				"/>
				<path class="st10" d="M203.1,273c0,0,0.3-0.8,0.3-0.8l4.4,1.9c0,0-0.2,0.6-0.2,0.6L203.1,273z"/>
			</g>
			<g>
				<path class="st10" d="M206.9,284.4c0,0,0-0.2-0.1-0.4c0-0.1-0.1-0.3-0.1-0.4c0-0.2,0-0.3-0.1-0.5c0-0.3-0.1-0.7-0.1-1
					c0-0.3,0-0.4,0-0.4l-4.7,0.3c0,0,0,0.2,0,0.6c0,0.3,0.1,0.8,0.2,1.2c0,0.2,0.1,0.5,0.1,0.7c0,0.2,0.1,0.4,0.1,0.6
					c0.1,0.3,0.1,0.6,0.1,0.6L206.9,284.4z M205.7,282.3c0,0,0.1,0.4,0.1,0.8c0,0.2,0.1,0.4,0.1,0.5c0,0.1,0.1,0.2,0.1,0.2l-3.1,0.6
					c0,0,0-0.1-0.1-0.3c0-0.2-0.1-0.4-0.1-0.6c-0.1-0.5-0.1-0.9-0.1-0.9L205.7,282.3z"/>
				<polygon class="st10" points="203,287.8 202.7,287 207.2,285.5 207.4,286.1 				"/>
				<path class="st10" d="M209.4,289.6c-0.1,0.1-1.6-2.2-1.5-2.3l-4.2,2.2c0,0,0.1,0.2,0.3,0.5c0.2,0.3,0.4,0.7,0.7,1.1
					c0.3,0.4,0.5,0.8,0.7,1.1c0.2,0.3,0.4,0.5,0.4,0.5L209.4,289.6z M207.6,288.3l0.8,1.3l-2.6,1.9l-1-1.6L207.6,288.3z"/>
				<polygon class="st10" points="207.4,294.4 206.8,293.8 210.2,290.5 210.7,290.9 				"/>
				<path class="st10" d="M215.8,295.1c0,0-0.6-0.5-1.3-1c-0.6-0.5-1.2-1-1.2-1l-3,3.7c0,0,0.6,0.5,1.3,1c0.6,0.5,1.3,1,1.3,1
					L215.8,295.1z M213.4,294.3l1.3,1l-2,2.6l-1.4-1.1L213.4,294.3z"/>
				<polygon class="st10" points="214.7,300.2 214,299.8 216.9,296 217.5,296.4 				"/>
				<polygon class="st10" points="209.3,296 208.6,295.5 211.7,291.9 212.3,292.3 				"/>
			</g>
			<g>
				<path class="st10" d="M221.2,299.1l-2.6-1.9l-2.8,3.8l2.6,1.9L221.2,299.1z M218.7,298.3l1.4,1l-1.9,2.6l-1.4-1L218.7,298.3z"/>
				
					<rect x="218.8" y="301.7" transform="matrix(0.5959 -0.8031 0.8031 0.5959 -153.2229 299.7107)" class="st10" width="4.8" height="0.8"/>
				<path class="st10" d="M226.7,303.3l-2.6-2l-2.8,3.8l2.6,1.9L226.7,303.3z M224.3,302.4l1.4,1l-1.9,2.6l-1.4-1L224.3,302.4z"/>
				<polygon class="st10" points="225.5,308.4 224.9,307.9 227.8,304.1 228.5,304.6 				"/>
				<path class="st10" d="M233.7,308.8c0,0-0.1-0.1-0.4-0.2c-0.2-0.2-0.5-0.4-0.8-0.6c-0.1-0.1-0.3-0.2-0.4-0.3
					c-0.2-0.1-0.3-0.2-0.4-0.4c-0.2-0.2-0.4-0.3-0.4-0.3l-3.1,3.6c0,0,0.1,0.1,0.4,0.3c0.1,0.1,0.2,0.2,0.4,0.3
					c0.2,0.1,0.3,0.3,0.5,0.4c0.4,0.3,0.7,0.6,1,0.8c0.3,0.2,0.5,0.3,0.5,0.3L233.7,308.8z M231.5,308.1c0,0.1,1.2,1,1.2,1l-1.9,2.6
					c0,0-1.5-1.2-1.4-1.1L231.5,308.1z"/>
				<polygon class="st10" points="233.1,314 232.4,313.6 234.7,309.5 235.3,309.8 				"/>
				<polygon class="st10" points="227.3,309.8 226.7,309.3 229.7,305.6 230.3,306.1 				"/>
			</g>
			<g>
				<path class="st10" d="M239,311.1c0,0-0.2,0-0.4-0.1c-0.2-0.1-0.6-0.1-0.9-0.2c-0.3-0.1-0.7-0.2-0.9-0.3
					c-0.2-0.1-0.4-0.2-0.4-0.2l-1.9,4.4c0,0,0.2,0.1,0.5,0.2c0.3,0.1,0.8,0.3,1.2,0.4c0.4,0.2,0.9,0.2,1.2,0.3
					c0.3,0.1,0.6,0.1,0.6,0.1L239,311.1z M236.7,311.3c0,0,0.4,0.1,0.7,0.2c0.2,0.1,0.4,0.1,0.5,0.1c0.1,0,0.2,0.1,0.2,0.1l-0.8,3.1
					c0,0-0.1,0-0.3-0.1c-0.2,0-0.4-0.1-0.6-0.2c-0.4-0.2-0.9-0.3-0.9-0.3L236.7,311.3z"/>
				<path class="st10" d="M240.5,316.1c0,0-0.9-0.1-0.9-0.1l0.6-4.7c0,0,0.6,0.1,0.6,0.1L240.5,316.1z"/>
				<path class="st10" d="M244.8,311c0,0-0.2,0-0.4,0.1c-0.1,0-0.3,0.1-0.4,0.1c-0.2,0-0.3,0-0.5,0.1c-0.7,0.1-1.4,0.1-1.4,0.1
					l0.2,4.8c0,0,0.9,0,1.9-0.2c0.2,0,0.5-0.1,0.7-0.1c0.2,0,0.4-0.1,0.6-0.1c0.3-0.1,0.6-0.1,0.6-0.1L244.8,311z M242.8,312.1
					c0,0,0.4-0.1,0.8-0.1c0.2,0,0.4,0,0.5-0.1c0.1,0,0.2-0.1,0.2-0.1l0.6,3.2c0,0-0.1,0-0.3,0.1c-0.2,0-0.4,0.1-0.6,0.1
					c-0.5,0.1-0.9,0.1-0.9,0.1L242.8,312.1z"/>
				<path class="st10" d="M248.3,314.8c0,0-0.2,0.1-0.4,0.2c-0.2,0.1-0.4,0.1-0.4,0.1l-1.6-4.5c0,0,0.2,0,0.3-0.1
					c0.1-0.1,0.3-0.1,0.3-0.1L248.3,314.8z"/>
				<path class="st10" d="M251.1,307c0,0-0.1,0.1-0.3,0.3c-0.2,0.2-0.4,0.5-0.6,0.7c-0.3,0.2-0.5,0.5-0.7,0.6
					c-0.2,0.2-0.3,0.3-0.3,0.3l2.9,3.8c0,0,0.2-0.1,0.5-0.4c0.3-0.2,0.6-0.5,1-0.9c0.4-0.3,0.6-0.7,0.9-0.9c0.2-0.3,0.4-0.4,0.4-0.4
					L251.1,307z M250.1,309.1c0,0,0.3-0.3,0.6-0.5c0.1-0.1,0.3-0.3,0.4-0.4c0.1-0.1,0.2-0.2,0.2-0.2l2.4,2.2c0,0-0.1,0.1-0.2,0.2
					c-0.1,0.1-0.3,0.3-0.5,0.5c-0.4,0.3-0.7,0.6-0.7,0.6L250.1,309.1z"/>
				<path class="st10" d="M256.2,308.1c0,0-0.1,0.2-0.2,0.4c-0.1,0.2-0.3,0.4-0.3,0.4l-3.9-2.7c0,0,0.1-0.1,0.2-0.3
					c0.1-0.1,0.2-0.3,0.2-0.3L256.2,308.1z"/>
				<polygon class="st10" points="250.7,313.6 249.9,314 247.6,309.9 248.2,309.6 				"/>
			</g>
			<g>
				<path class="st10" d="M253.6,302.1c0,0,0,0.2-0.1,0.4c-0.1,0.2-0.2,0.6-0.3,0.9c-0.1,0.3-0.2,0.6-0.3,0.9
					c-0.1,0.2-0.2,0.4-0.2,0.4l4.3,2.1c0,0,0.1-0.2,0.2-0.5c0.1-0.3,0.3-0.7,0.5-1.2c0.1-0.4,0.3-0.9,0.4-1.2
					c0.1-0.3,0.1-0.6,0.1-0.6L253.6,302.1z M253.6,304.3c0,0,0.5-1.4,0.5-1.4l3.1,0.9c0,0-0.2,0.5-0.3,0.9c-0.1,0.5-0.3,0.9-0.3,0.9
					L253.6,304.3z"/>
				<polygon class="st10" points="258.6,300.7 258.5,301.6 253.8,301 253.9,300.3 				"/>
				<path class="st10" d="M253.6,296.3c0,0,0.1,0.2,0.1,0.4c0,0.3,0.1,0.6,0.1,0.9c0.1,0.3,0,0.7,0.1,0.9c0,0.3,0,0.4,0,0.4l4.8-0.1
					c0,0,0-0.2,0-0.6c0-0.3,0-0.8-0.1-1.3c-0.1-0.5-0.1-0.9-0.2-1.3c-0.1-0.3-0.1-0.6-0.1-0.6L253.6,296.3z M254.6,298.3
					c0,0,0-0.1,0-0.2c0-0.1,0-0.3-0.1-0.5c-0.1-0.4-0.1-0.8-0.1-0.8l3.2-0.6c0,0,0.1,0.5,0.1,0.9c0,0.2,0.1,0.5,0.1,0.6
					c0,0.2,0,0.3,0,0.3L254.6,298.3z"/>
				<polygon class="st10" points="257.5,292.9 257.8,293.7 253.3,295.2 253.1,294.5 				"/>
				<path class="st10" d="M249.9,289.4c0,0,0.1,0.2,0.3,0.4c0.2,0.2,0.4,0.5,0.6,0.8c0.2,0.3,0.4,0.6,0.6,0.8
					c0.1,0.2,0.2,0.4,0.2,0.4l4-2.5c0,0-0.1-0.2-0.3-0.5c-0.2-0.3-0.4-0.7-0.7-1c-0.3-0.4-0.6-0.7-0.8-1c-0.2-0.2-0.3-0.4-0.3-0.4
					L249.9,289.4z M251.9,290.7c0,0-0.2-0.3-0.5-0.6c-0.2-0.3-0.5-0.6-0.5-0.6l2.5-2.1c0,0,0.3,0.4,0.6,0.7c0.3,0.4,0.5,0.8,0.5,0.8
					L251.9,290.7z"/>
				<polygon class="st10" points="252.3,284.7 252.7,285.3 249,288.3 248.5,287.7 				"/>
				<path class="st10" d="M256.5,290.5c0,0,0.1,0.2,0.2,0.4c0.1,0.2,0.2,0.4,0.2,0.4l-4.3,2c0,0-0.1-0.2-0.1-0.3
					c-0.1-0.1-0.2-0.3-0.2-0.3L256.5,290.5z"/>
			</g>
			<g>
				<path class="st10" d="M245.7,284l2,2.6l3.8-2.9l-1.9-2.5L245.7,284z M247.8,285.5l-1-1.4l2.6-1.9l1,1.3L247.8,285.5z"/>
				
					<rect x="244.2" y="280.8" transform="matrix(0.8009 -0.5988 0.5988 0.8009 -119.2659 203.6124)" class="st10" width="4.8" height="0.8"/>
				<path class="st10" d="M241.6,278.4l1.9,2.6l3.8-2.8l-1.9-2.6L241.6,278.4z M243.6,279.9l-1-1.4l2.6-1.9l1,1.4L243.6,279.9z"/>
				
					<rect x="240" y="275.2" transform="matrix(0.8018 -0.5976 0.5976 0.8018 -116.6494 199.4975)" class="st10" width="4.8" height="0.8"/>
				<path class="st10" d="M236.1,271.3c0,0,0.5,0.6,1,1.2c0.5,0.6,1,1.3,1,1.3l3.8-2.9c0,0-0.5-0.6-1-1.3c-0.5-0.6-1-1.3-1-1.3
					L236.1,271.3z M238.2,272.7l-1-1.3l2.5-2l1.1,1.4L238.2,272.7z"/>
				<polygon class="st10" points="238.5,266.6 239,267.2 235.3,270.2 234.8,269.7 				"/>
				<polygon class="st10" points="242.7,272 243.2,272.6 239.4,275.5 238.9,274.9 				"/>
			</g>
		</g>
	</g>
	<g>
		<path class="st10" d="M283.4,89.4c-2.5,0-4.6-2-4.6-4.6c0-2.5,2-4.6,4.6-4.6c2.5,0,4.6,2,4.6,4.6
			C287.9,87.4,285.9,89.4,283.4,89.4z M283.4,81.7c-1.8,0-3.2,1.4-3.2,3.2c0,1.8,1.4,3.2,3.2,3.2c1.8,0,3.2-1.4,3.2-3.2
			C286.6,83.1,285.1,81.7,283.4,81.7z"/>
		<path class="st10" d="M283.4,122.2c-3.8,0-6.9-3.1-6.9-6.9c0-3.8,3.1-6.9,6.9-6.9c3.8,0,6.9,3.1,6.9,6.9
			C290.2,119.1,287.1,122.2,283.4,122.2z M283.4,110.5c-2.7,0-4.8,2.2-4.8,4.8c0,2.7,2.2,4.8,4.8,4.8c2.7,0,4.8-2.2,4.8-4.8
			C288.2,112.6,286,110.5,283.4,110.5z"/>
		<path class="st10" d="M244.9,129.4c-5,0-9-4-9-9c0-5,4-9,9-9c5,0,9,4,9,9C253.9,125.3,249.9,129.4,244.9,129.4z M244.9,114
			c-3.5,0-6.3,2.8-6.3,6.3c0,3.5,2.8,6.3,6.3,6.3c3.5,0,6.3-2.8,6.3-6.3C251.2,116.9,248.4,114,244.9,114z"/>
		<path class="st10" d="M255.7,79.4c-1.6,0-3-1.3-3-3c0-1.6,1.3-3,3-3c1.6,0,3,1.3,3,3C258.6,78,257.3,79.4,255.7,79.4z M255.7,74.3
			c-1.2,0-2.1,0.9-2.1,2.1c0,1.2,0.9,2.1,2.1,2.1c1.2,0,2.1-0.9,2.1-2.1C257.8,75.2,256.8,74.3,255.7,74.3z"/>
		<polygon class="st10" points="280.3,87.3 279.8,86.6 263.1,96.8 256.9,78.7 256.1,78.9 262.4,97.4 249.3,114.1 250,114.6 
			263,98.1 278.7,111.8 279.2,111.1 263.6,97.6 		"/>
		
			<ellipse transform="matrix(0.3143 -0.9493 0.9493 0.3143 87.7022 316.4267)" class="st10" cx="262.9" cy="97.5" rx="11.1" ry="11.1"/>
		
			<ellipse transform="matrix(0.9267 -0.3758 0.3758 0.9267 -17.3705 105.9434)" class="st10" cx="262.9" cy="97.5" rx="7.6" ry="7.6"/>
	</g>
</g>
</svg>
